<svg class="hide">
  <defs>

    <symbol id="charities">

      <svg width="326px" height="356px" viewBox="0 0 326 356" version="1.1" xmlns="http://www.w3.org/2000/svg" xmlns:xlink="http://www.w3.org/1999/xlink">
          <title>Charities</title>
          <g id="Page-1" stroke="none" stroke-width="1" fill="none" fill-rule="evenodd" stroke-linecap="round">
              <g id="Charities" transform="translate(3.000000, 3.000000)" stroke="#BF8A49" stroke-width="5">
                  <g id="hand" transform="translate(40.000000, 240.000000)" stroke-linejoin="round">
                      <path d="M190,29.8769517 C190,29.8769517 190,9.6769516 180,19.8769517 C170,29.676952 170,39.8769517 170,39.8769517 L160,49.6769518 L150,72.6769518 L170,72.6769518 C170,72.6769518 190,29.4769519 190,29.8769517 Z" id="Path-7-Copy"></path>
                      <path d="M210,19.8000001 C210,19.8000001 210,-0.200000122 200,9.80000008 C190,19.8000003 194.086566,23.6701518 190,29.8000001 C185.913434,35.9298484 180,39.8000001 180,39.8000001 L170,59.8000001 L190,59.8000001 L210,19.8000001 Z" id="Path-7" fill="#FFFFFF"></path>
                      <path d="M40,90 C40,90 100,110 120,110 C140,110 200,70 200,70 L220,30 C220,30 230,3.13351411e-15 220,0 C210,-3.13351411e-15 210,10 200,30 C192.634486,42.363783 170,60 170,60 C170,60 140,80 120,80 C100,80 80,70 80,70 C80,70 100,80 120,80 C140,80 170,60 180,50 C190,30 170,30 170,30 C170,30 157.154667,35.8490958 150,40 C140.308998,45.6224034 140,50 120,50 C120,50 100,40 100,40 C100,40 90,30 70,30 C50,30 30,50 30,50 L0,50 L0,90 C20,90 40,90 40,90 Z" id="Path" fill="#FFFFFF"></path>
                  </g>
                  <g id="heart" transform="translate(77.000000, 120.000000)" fill="#FFFFFF" stroke-linejoin="round">
                      <path d="M82.9999994,30 C82.9999994,30 92.9999994,0 122.999999,0 C152.999999,0 173,20 163.000007,50 C153.000014,80 83,130 83,130 C83,130 13.0000004,80 3.00000003,50 C-7.00000037,20 12.9999994,-1.10688828e-08 42.9999994,0 C72.9999994,-1.10688828e-08 82.9999994,30 82.9999994,30 Z" id="Path-2"></path>
                  </g>
                  <g id="rays">
                      <path d="M160,50 L160,0" id="Path-3"></path>
                      <path d="M160,110 L160,65" id="Path-3"></path>
                      <path d="M240,109.5 L310,40" id="Path-3-Copy"></path>
                      <path d="M80,110 L40,70" id="Path-3-Copy"></path>
                      <path d="M30,60 L10,40" id="Path-3-Copy-2"></path>
                      <path d="M120.5,101.5 L90,40" id="Path-4" stroke-linejoin="round"></path>
                      <path d="M229.5,100.5 L200,40" id="Path-4" stroke-linejoin="round" transform="translate(215.000000, 70.500000) scale(-1, 1) translate(-215.000000, -70.500000) "></path>
                      <path d="M60,171.5 L0,171.5" id="Path-5" stroke-linejoin="round"></path>
                      <path d="M279.506409,171 L260,171" id="Path-5-Copy" stroke-linejoin="round"></path>
                      <path d="M319.5,171 L290,171" id="Path-5-Copy-2" stroke-linejoin="round"></path>
                      <path d="M260,140.056641 L319.705078,110" id="Path-6" stroke-linejoin="round"></path>
                      <path d="M0,140.056641 L59.7050781,110" id="Path-6" stroke-linejoin="round" transform="translate(29.852539, 125.028320) scale(-1, 1) translate(-29.852539, -125.028320) "></path>
                  </g>
              </g>
          </g>
      </svg>

    </symbol>

    <symbol id="social-responsibility">

      <svg width="326px" height="313px" viewBox="0 0 326 313" version="1.1" xmlns="http://www.w3.org/2000/svg" xmlns:xlink="http://www.w3.org/1999/xlink">
          <title>Social Responsibility</title>
          <g id="Page-1" stroke="none" stroke-width="1" fill="none" fill-rule="evenodd" stroke-linecap="round">
              <g id="Social-Responsibility" transform="translate(163.000000, 156.500000) scale(-1, 1) translate(-163.000000, -156.500000) translate(3.000000, 3.000000)" stroke="#BF8A49" stroke-width="5">
                  <path d="M118.256019,187.818383 C118.256019,187.818383 117.392999,192.09992 115.807071,199.886842 C114.221142,207.673764 113.681478,208.491788 113.681478,210.279418 C113.681478,215.26372 125.212255,215.643329 125.212255,215.643329" id="nose" stroke-linejoin="round"></path>
                  <path d="M125.212255,243.468274 C125.212255,243.468274 123.893695,234.530801 126.482584,232.138576 C129.071472,229.746351 132.168492,229.555802 132.168492,229.555802 C132.168492,229.555802 133.456795,224.489782 139.127446,222.599565 C144.798096,220.709348 153.037201,222.599565 153.037201,222.599565" id="mouth" stroke-linejoin="round"></path>
                  <path d="M130.777245,271.988844 C130.777245,271.988844 125.212256,264.336984 132.168492,257.380747 C139.124728,250.424511 139.124729,250.424511 153.037201,243.468274 C166.949673,236.512038 194.77462,229.555802 194.77462,229.555802 C194.77462,229.555802 201.730857,222.599565 208.687092,215.643329 C215.643328,208.687092 215.643329,201.730856 215.643329,201.730856 L217.034576,212.860834 C217.034576,212.860834 219.81707,217.7302 223.990813,217.7302 C228.164556,217.7302 234.425168,217.7302 241.381404,213.556458 C248.337639,209.382716 253.207007,203.122103 251.815758,191.992125 C250.42451,180.862147 242.772651,173.210287 242.772651,173.210287" id="jaw-and-ear" stroke-linejoin="round"></path>
                  <path d="M237.506562,220.115971 C237.506562,220.115971 234.167025,229.951166 237.143806,242.530813 C240.120586,255.11046 255.598212,287.148548 255.598212,287.148548" id="neck"></path>
                  <path d="M153.037201,306.770026 L153.732825,290.075058 C153.732825,290.075058 146.760685,287.202314 142.602846,283.814446 C138.445008,280.426577 134.255363,276.162586 134.255363,276.162586" id="throat" stroke-linejoin="round"></path>
                  <g id="eye" transform="translate(132.000000, 166.000000)" stroke-linejoin="round">
                      <path d="M0.168491858,14.8621468 C0.168491858,14.8621468 0.168491858,0.949673928 14.0809647,0.949673926 C27.9934375,0.949673925 41.9059103,7.90591034 41.9059103,7.90591034" id="Path-18"></path>
                      <path d="M14.0809647,14.8621468 C21.0372011,14.8621468 34.9496739,7.90591034 34.9496739,7.90591034" id="Path-19"></path>
                  </g>
                  <g id="hair" transform="translate(89.000000, 123.000000)" stroke-linejoin="round">
                      <path d="M29.256019,30.0372011 C29.256019,43.9496739 15.3435461,57.8621468 15.3435462,78.730856 C15.3435461,92.6433288 22.2997826,99.5995652 22.2997826,99.5995652" id="Path-14"></path>
                      <path d="M29.256019,30.0372011 C43.1684919,30.0372011 50.1247283,30.0372011 64.0372011,30.0372011 C103.392924,30.0372011 119.687092,64.8183832 126.643329,64.8183832 C133.599565,64.8183832 134.295189,64.8183832 139.164554,60.6446413 C144.03392,56.4708995 144.03392,50.9059103 153.077027,50.9059103" id="Path-16"></path>
                      <path d="M154.468274,50.9059103 C154.468274,50.9059103 105.774624,9.16849195 84.9059103,2.21225544 C64.0371968,-4.74398106 29.256019,9.16849186 29.256019,9.16849186 C29.256019,9.16849186 8.38730955,23.0809647 1.43107338,50.9059103 C1.43107339,71.7746196 -5.52516277,92.6433288 15.3435462,106.555802" id="Path-20"></path>
                  </g>
                  <g id="crown" transform="translate(88.000000, 90.000000)">
                      <path d="M169.380752,69.9934375 C169.380752,69.9934375 127.375676,0.431073384 71.9934368,0.431073377 C16.6111976,0.43107337 2.43107336,42.1684919 2.43107336,42.1684919 C-2.96816156,57.7255983 2.43107336,83.9059103 2.43107336,83.9059103" id="Path-21" stroke-linejoin="round"></path>
                      <g id="crown-lines" transform="translate(3.000000, 7.000000)">
                          <path d="M152.468274,56.0372011 L145.512038,62.9934375" id="Path-28" stroke-linejoin="round"></path>
                          <path d="M145.848301,47.8588681 L138.555802,56.0372011" id="Path-29"></path>
                          <path d="M128.59765,48.9505353 L137.240638,37.0427356" id="Path-30"></path>
                          <path d="M117.35015,40.1757593 L125.849801,26.3740156" id="Path-31"></path>
                          <path d="M105.140732,32.5490341 L113.63427,16.8764432" id="Path-31-Copy"></path>
                          <path d="M92.9999257,24.8536976 L99.2252138,8.99769031" id="Path-31-Copy-2"></path>
                          <path d="M78.0365449,20.9591562 L83.2849709,2.58219259" id="Path-31-Copy-3"></path>
                          <path d="M62.0372011,0.38730979 L62.0372011,21.256019" id="Path-32"></path>
                          <path d="M46.9590152,1.75138427 L48.5656069,22.4713224" id="Path-33"></path>
                          <path d="M30.3768149,9.88284422 L34.7706565,27.2666421" id="Path-34"></path>
                          <path d="M16.5329534,20.0121842 L21.7487721,32.6821808" id="Path-35"></path>
                          <path d="M7.45112485,32.3221412 L11.6336979,42.0411719" id="Path-36"></path>
                          <path d="M3.96145821,54.6439159 L0.982640171,50.9694742" id="Path-37"></path>
                      </g>
                  </g>
                  <g id="rays">
                      <path d="M208.687092,97.3873098 L257.380747,20.8687092 L208.687092,97.3873098 Z" id="Path-22" stroke-linejoin="round"></path>
                      <path d="M250.424511,132.168492 L319.986875,83.474837" id="Path-23" stroke-linejoin="round"></path>
                      <path d="M160.689061,81.387966 L153.037201,0" id="Path-24" stroke-linejoin="round"></path>
                      <path d="M67.8036175,45.4780356 L41.7374185,13.9124728" id="Path-25" stroke-linejoin="round"></path>
                      <path d="M109.908535,94.6048152 L74.4186047,52.9198966" id="Path-25" stroke-linejoin="round"></path>
                      <path d="M79.9967188,145.385341 L0,118.256019" id="Path-26" stroke-linejoin="round"></path>
                      <path d="M81.387966,210.773963 L12.5212255,228.860178" id="Path-40"></path>
                      <path d="M105.734793,252.511382 L42.4330421,301.205037" id="Path-41"></path>
                  </g>
              </g>
          </g>
      </svg>

    </symbol>

    <symbol id="honesty">

      <?xml version="1.0" encoding="UTF-8" standalone="no"?>
      <svg width="286px" height="310px" viewBox="0 0 286 310" version="1.1" xmlns="http://www.w3.org/2000/svg" xmlns:xlink="http://www.w3.org/1999/xlink">
          <title>Honesty</title>
          <g id="Page-1" stroke="none" stroke-width="1" fill="none" fill-rule="evenodd" stroke-linecap="round">
              <g id="Honesty" transform="translate(3.000000, 3.000000)" stroke="#BF8A49" stroke-width="5">
                  <g id="hand" transform="translate(90.000000, 116.000000)" fill="#FFFFFF" stroke-linejoin="round">
                      <path d="M95.8611111,113.545455 C95.8611111,113.545455 95.8611111,134.818182 95.8611111,145.454545 C95.8611111,156.090909 74.4722222,166.727273 74.4722222,166.727273 L74.4722222,188 L21,188 L21,71 L98,80.5727273" id="Path-38"></path>
                      <path d="M19,96 L19,21.625 C19,21.625 19,11 29.5,11 C40,11 40,21.625 40,21.625 L40,85.375" id="Path-15"></path>
                      <path d="M40,85 L40,10.625 C40,10.625 40,0 50.5,0 C61,5.3128617e-15 61,7.4375 61,10.625 C61,32.9375002 61,85 61,85" id="Path-15-Copy"></path>
                      <path d="M62,85 C62,85 62,26.8571429 62,23.6857143 C62,20.5142857 62,11 72.5,11 C83,11 83,16.2857143 83,21.5714286 C83,26.8571429 83,85 83,85" id="Path-15-Copy"></path>
                      <path d="M21.3333333,177 L21.3333333,166.333333 C21.3333333,166.333333 2.70620551e-09,166.333333 2.70620554e-09,145 C2.70620641e-09,123.666667 -3.38275735e-09,110.097438 2.70620554e-09,102.333333 C1.10714913e-08,91.6666667 32,81 32,81 L64,81 C64,81 64,102.333333 42.6666667,102.333333 L32,102.333333 L32,113 C32,113 53.3333333,113 53.3333333,123.666667 L53.3333333,145 C53.3333333,155.666667 32,155.666667 32,155.666667" id="Path-17"></path>
                      <path d="M81.2307689,84.6223176 C81.2307689,84.6223176 81.2307689,74 91.615384,74 C101.999999,74 101.999999,84.6223176 102,95.2446352 C101.999998,105.866953 81.2307689,127.111588 81.2307689,127.111588 C81.2307689,127.111588 74.9999997,131.360515 70.8461538,127.111588 C66.6923078,122.862661 70.8461538,116.48927 70.8461538,116.48927 L81.2307689,95.2446352" id="Path-27"></path>
                  </g>
                  <g id="rays">
                      <path d="M140,50 L140,0" id="Path-3"></path>
                      <path d="M140,90.5 L140,65" id="Path-3"></path>
                      <path d="M200,129.5 L270,60" id="Path-3-Copy"></path>
                      <path d="M80,130 L40,90" id="Path-3-Copy"></path>
                      <path d="M30,80 L10,60" id="Path-3-Copy-2"></path>
                      <path d="M100.5,101.5 L70,40" id="Path-4" stroke-linejoin="round"></path>
                      <path d="M209.5,100.5 L180,40" id="Path-4" stroke-linejoin="round" transform="translate(195.000000, 70.500000) scale(-1, 1) translate(-195.000000, -70.500000) "></path>
                      <path d="M60,191.5 L0,191.5" id="Path-5" stroke-linejoin="round"></path>
                      <path d="M239.506409,191 L220,191" id="Path-5-Copy" stroke-linejoin="round"></path>
                      <path d="M279.5,191 L250,191" id="Path-5-Copy-2" stroke-linejoin="round"></path>
                      <path d="M220,160.056641 L279.705078,130" id="Path-6" stroke-linejoin="round"></path>
                      <path d="M0,160.056641 L59.7050781,130" id="Path-6" stroke-linejoin="round" transform="translate(29.852539, 145.028320) scale(-1, 1) translate(-29.852539, -145.028320) "></path>
                  </g>
              </g>
          </g>
      </svg>

    </symbol>

    <symbol id="vc-funding">

      <svg width="286px" height="296px" viewBox="0 0 286 296" version="1.1" xmlns="http://www.w3.org/2000/svg" xmlns:xlink="http://www.w3.org/1999/xlink">
          <!-- Generator: Sketch 39.1 (31720) - http://www.bohemiancoding.com/sketch -->
          <title>VC Funding</title>
          <g id="Page-1" stroke="none" stroke-width="1" fill="none" fill-rule="evenodd">
              <g id="VC-Funding" transform="translate(3.000000, 3.000000)" stroke="#BF8A49" stroke-width="5">
                  <g id="rays" stroke-linecap="round">
                      <path d="M140,15 L140,0" id="Path-3" transform="translate(140.000000, 7.500000) scale(-1, 1) translate(-140.000000, -7.500000) "></path>
                      <path d="M140,60 L140,30" id="Path-3" transform="translate(140.000000, 45.000000) scale(-1, 1) translate(-140.000000, -45.000000) "></path>
                      <path d="M10,110 L80,40" id="Path-3-Copy" transform="translate(45.000000, 75.000000) scale(-1, 1) translate(-45.000000, -75.000000) "></path>
                      <path d="M230,110 L200,80" id="Path-3-Copy" transform="translate(215.000000, 95.000000) scale(-1, 1) translate(-215.000000, -95.000000) "></path>
                      <path d="M270,70 L240,40" id="Path-3-Copy-2" transform="translate(255.000000, 55.000000) scale(-1, 1) translate(-255.000000, -55.000000) "></path>
                      <path d="M199.5,81.5 L169,20" id="Path-4" stroke-linejoin="round" transform="translate(184.500000, 51.000000) scale(-1, 1) translate(-184.500000, -51.000000) "></path>
                      <path d="M109.5,80.5 L80,20" id="Path-4" stroke-linejoin="round"></path>
                      <path d="M280,151.5 L230,151.5" id="Path-5" stroke-linejoin="round" transform="translate(255.000000, 151.500000) scale(-1, 1) translate(-255.000000, -151.500000) "></path>
                      <path d="M49.5064087,151 L30,151" id="Path-5-Copy" stroke-linejoin="round" transform="translate(40.000000, 151.000000) scale(-1, 1) translate(-40.000000, -151.000000) "></path>
                      <path d="M20,151 L0.5,151" id="Path-5-Copy-2" stroke-linejoin="round" transform="translate(10.250000, 151.000000) scale(-1, 1) translate(-10.250000, -151.000000) "></path>
                      <path d="M0.294921875,130.056641 L60,100" id="Path-6" stroke-linejoin="round" transform="translate(30.147461, 115.028320) scale(-1, 1) translate(-30.147461, -115.028320) "></path>
                      <path d="M220.294922,130.056641 L280,100" id="Path-6" stroke-linejoin="round"></path>
                  </g>
                  <g id="bag" transform="translate(70.000000, 81.000000)" fill="#FFFFFF">
                      <polyline id="Path-12" stroke-linecap="round" stroke-linejoin="round" points="60 30 50 10 60 0 70 10 80 0 90 10 80 30"></polyline>
                      <path d="M50,40 C50,30 50,30 70,30 C90,30 90,30 90,40 C90,40 50,40 50,40 Z" id="Path-11"></path>
                      <path d="M0.0122535178,190 C0.0122535178,181 0.0122535687,159 0.0122535178,140.041612 C0.0122535687,89 3.92365657,40 70.2111588,40 C135.496822,40 139.711639,83.2308088 139.981709,137.533982 C140.002084,141.630901 139.981705,185.790844 139.981705,190 C139.981705,199 106.46973,209 71,209 C35.5302696,209 0.0122535178,199 0.0122535178,190 Z" id="Path-9" stroke-linecap="round" stroke-linejoin="round"></path>
                  </g>
                  <g id="dollar-sign" transform="translate(120.000000, 151.000000)" stroke-linecap="round" stroke-linejoin="round">
                      <path d="M40,40 C40,30 40,20 20,20 C0,20 5.55111512e-16,30 0,40 C0,50 20,50 20,50 C20,50 40,50 40,60 C40,70 40,80 20,80 C0,80 6.91159174e-09,70 0,60" id="Path-10"></path>
                      <path d="M20,0 L20,10" id="Path-13"></path>
                      <path d="M20,90 L20,100" id="Path-13-Copy"></path>
                  </g>
              </g>
          </g>
      </svg>

    </symbol>

  </defs>
</svg>
