<svg width="496px" height="209px" viewBox="0 0 496 209" version="1.1" xmlns="http://www.w3.org/2000/svg" xmlns:xlink="http://www.w3.org/1999/xlink" class="hero-logo">
    <g id="Logo" stroke="none" stroke-width="1" fill="none" fill-rule="evenodd">
        <g id="Artboard-Copy-30" transform="translate(-271.000000, -244.000000)">
            <g id="Group" transform="translate(271.000000, 244.000000)">
                <path d="M54.4559531,180.064969 C54.4559531,184.434553 53.8063257,188.364456 52.5070516,191.854795 C51.2077774,195.345134 49.3782147,198.315874 47.0183085,200.767104 C44.6584024,203.218335 41.8345121,205.096695 38.546553,206.402242 C35.2585939,207.707788 31.6127261,208.360552 27.6088404,208.360552 L7.08571429,208.360552 L7.08571429,151.809351 L27.6088404,151.809351 C31.6127261,151.809351 35.2585939,152.462115 38.546553,153.767661 C41.8345121,155.073208 44.6584024,156.951568 47.0183085,159.402799 C49.3782147,161.854029 51.2077774,164.824769 52.5070516,168.315108 C53.8063257,171.805447 54.4559531,175.722028 54.4559531,180.064969 L54.4559531,180.064969 Z M50.2399621,180.064969 C50.2399621,176.121685 49.6963963,172.604755 48.6092485,169.514073 C47.5221008,166.423392 45.9908363,163.812337 44.0154093,161.680833 C42.0399822,159.549328 39.6602249,157.92408 36.876066,156.80504 C34.091907,155.686 31.0028627,155.126489 27.6088404,155.126489 L11.1823848,155.126489 L11.1823848,205.043414 L27.6088404,205.043414 C31.0028627,205.043414 34.091907,204.483903 36.876066,203.364863 C39.6602249,202.245823 42.0399822,200.620575 44.0154093,198.48907 C45.9908363,196.357565 47.5221008,193.746511 48.6092485,190.65583 C49.6963963,187.565148 50.2399621,184.034896 50.2399621,180.064969 L50.2399621,180.064969 Z M108.584028,151.809351 L108.584028,155.20642 L78.9527705,155.20642 L78.9527705,178.066693 L103.612341,178.066693 L103.612341,181.383831 L78.9527705,181.383831 L78.9527705,204.963483 L108.584028,204.963483 L108.584028,208.360552 L74.8560999,208.360552 L74.8560999,151.809351 L108.584028,151.809351 Z M156.388117,158.683419 C156.149474,159.136364 155.804774,159.362833 155.354006,159.362833 C155.0093,159.362833 154.565167,159.116382 154.021593,158.623471 C153.478019,158.130561 152.742217,157.584371 151.814164,156.984885 C150.886111,156.385399 149.726062,155.832549 148.333983,155.326316 C146.941903,154.820084 145.225031,154.566972 143.183315,154.566972 C141.141598,154.566972 139.34518,154.860049 137.794005,155.446213 C136.242831,156.032377 134.943576,156.831679 133.896202,157.844144 C132.848828,158.856608 132.053366,160.028918 131.509792,161.361109 C130.966218,162.693299 130.694435,164.092078 130.694435,165.557488 C130.694435,167.475842 131.098795,169.061125 131.907527,170.313384 C132.716259,171.565643 133.783504,172.631379 135.109294,173.510625 C136.435084,174.38987 137.939833,175.129225 139.623586,175.728711 C141.30734,176.328196 143.03747,176.921012 144.814028,177.507176 C146.590587,178.09334 148.320717,178.739442 150.00447,179.445503 C151.688223,180.151564 153.192972,181.037458 154.518762,182.10321 C155.844552,183.168962 156.911797,184.48115 157.720529,186.039813 C158.529261,187.598476 158.933621,189.536784 158.933621,191.854795 C158.933621,194.226094 158.529261,196.457479 157.720529,198.549018 C156.911797,200.640557 155.738491,202.45897 154.200574,204.004311 C152.662658,205.549652 150.780064,206.768588 148.552737,207.661155 C146.32541,208.553723 143.779931,209 140.916225,209 C137.204013,209 134.008907,208.340576 131.330811,207.021707 C128.652716,205.702839 126.306103,203.897748 124.290902,201.60638 L125.40456,199.847898 C125.72275,199.44824 126.093965,199.248415 126.518218,199.248415 C126.75686,199.248415 127.061787,199.408275 127.433008,199.728001 C127.80423,200.047727 128.254991,200.440717 128.785307,200.906984 C129.315623,201.37325 129.951993,201.879475 130.694435,202.425673 C131.436878,202.971871 132.298628,203.478096 133.279713,203.944363 C134.260798,204.410629 135.387702,204.80362 136.660461,205.123345 C137.933219,205.443071 139.378308,205.602931 140.995772,205.602931 C143.223099,205.602931 145.211754,205.263228 146.961797,204.583811 C148.71184,203.904394 150.190073,202.978535 151.396542,201.806208 C152.603011,200.63388 153.524421,199.241762 154.160801,197.629812 C154.79718,196.017861 155.115365,194.2927 155.115365,192.454278 C155.115365,190.455992 154.711005,188.810762 153.902273,187.518537 C153.093541,186.226312 152.026296,185.147254 150.700506,184.28133 C149.374716,183.415407 147.869967,182.689374 146.186214,182.10321 C144.502461,181.517046 142.772331,180.944213 140.995772,180.384693 C139.219213,179.825173 137.489084,179.199053 135.80533,178.506314 C134.121577,177.813575 132.616828,176.927681 131.291038,175.848607 C129.965248,174.769533 128.898003,173.424041 128.089271,171.81209 C127.280539,170.20014 126.876179,168.181902 126.876179,165.757315 C126.876179,163.865605 127.234137,162.040531 127.950064,160.28204 C128.665991,158.523548 129.713349,156.97157 131.09217,155.626058 C132.470992,154.280545 134.174607,153.201487 136.203065,152.388851 C138.231524,151.576215 140.544993,151.169903 143.143541,151.169903 C146.060279,151.169903 148.678675,151.636163 150.998807,152.568696 C153.31894,153.501229 155.433543,154.926652 157.342681,156.845006 L156.388117,158.683419 Z M183.629306,208.360552 L179.532635,208.360552 L179.532635,151.809351 L183.629306,151.809351 L183.629306,208.360552 Z M233.342522,205.682862 C235.278175,205.682862 237.04145,205.58295 238.632398,205.383121 C240.223346,205.183293 241.701579,204.883554 243.067143,204.483897 C244.432707,204.08424 245.731961,203.597998 246.964946,203.025156 C248.197931,202.452314 249.437526,201.806211 250.683768,201.086828 L250.683768,185.859968 L239.865376,185.859968 C239.573702,185.859968 239.328435,185.766716 239.129566,185.580209 C238.930698,185.393703 238.831265,185.180556 238.831265,184.940761 L238.831265,182.702693 L254.382704,182.702693 L254.382704,202.805346 C252.977366,203.791166 251.519019,204.670399 250.007619,205.443069 C248.496218,206.21574 246.878779,206.861842 245.155252,207.381397 C243.431725,207.900951 241.575647,208.300602 239.586962,208.580362 C237.598277,208.860122 235.424014,209 233.064108,209 C229.00719,209 225.301663,208.313932 221.947414,206.941776 C218.593166,205.56962 215.716245,203.624651 213.316565,201.106811 C210.916885,198.588971 209.054178,195.544962 207.728388,191.974692 C206.402598,188.404421 205.739713,184.434553 205.739713,180.064969 C205.739713,175.695384 206.402598,171.732177 207.728388,168.175229 C209.054178,164.61828 210.936771,161.580932 213.376225,159.063092 C215.815678,156.545252 218.778775,154.600283 222.265602,153.228127 C225.75243,151.855971 229.656823,151.169903 233.978898,151.169903 C236.126678,151.169903 238.108704,151.316442 239.925036,151.609524 C241.741369,151.902605 243.431725,152.335561 244.996158,152.908403 C246.56059,153.481245 248.018937,154.187295 249.371243,155.026575 C250.723548,155.865855 252.022803,156.831678 253.269046,157.924075 L252.195161,159.682557 C251.956519,160.082214 251.625076,160.28204 251.200824,160.28204 C250.962181,160.28204 250.736801,160.228753 250.524674,160.122178 C250.126937,159.962315 249.550227,159.589307 248.794527,159.003143 C248.038827,158.41698 247.017984,157.804181 245.731967,157.16473 C244.445951,156.525278 242.83514,155.952445 240.899487,155.446213 C238.963834,154.93998 236.617221,154.686868 233.859578,154.686868 C230.200397,154.686868 226.89923,155.273023 223.955976,156.445351 C221.012722,157.617678 218.500388,159.296213 216.418898,161.481005 C214.337407,163.665798 212.733226,166.330138 211.606304,169.474108 C210.479383,172.618077 209.91593,176.148329 209.91593,180.064969 C209.91593,184.06154 210.486012,187.645078 211.626191,190.815692 C212.76637,193.986305 214.363923,196.670628 216.418898,198.868742 C218.473872,201.066857 220.939805,202.752052 223.816769,203.92438 C226.693733,205.096707 229.868952,205.682862 233.342522,205.682862 L233.342522,205.682862 Z M278.004504,151.809351 C278.375725,151.809351 278.667395,151.855977 278.879521,151.94923 C279.091647,152.042484 279.317028,152.24897 279.555671,152.568696 L315.988197,201.566415 C315.908649,200.7671 315.868876,199.994442 315.868876,199.248415 L315.868876,151.809351 L319.448491,151.809351 L319.448491,208.360552 L317.49959,208.360552 C316.889726,208.360552 316.399191,208.094118 316.02797,207.561242 L279.43635,158.483592 C279.515897,159.282906 279.555671,160.042243 279.555671,160.761626 L279.555671,208.360552 L276.015829,208.360552 L276.015829,151.809351 L278.004504,151.809351 Z M407.022421,198.84876 C407.287579,198.84876 407.51296,198.942012 407.698571,199.128518 L409.289511,200.847035 C408.122816,202.099294 406.850076,203.224978 405.471255,204.224121 C404.092433,205.223264 402.587684,206.075853 400.956963,206.781914 C399.326241,207.487975 397.536451,208.034165 395.58754,208.4205 C393.638629,208.806835 391.49751,209 389.16412,209 C385.266297,209 381.693347,208.313932 378.445161,206.941776 C375.196976,205.56962 372.412859,203.624651 370.092726,201.106811 C367.772594,198.588971 365.962918,195.544962 364.663644,191.974692 C363.364369,188.404421 362.714742,184.434553 362.714742,180.064969 C362.714742,175.775316 363.384256,171.858734 364.723304,168.315108 C366.062352,164.771481 367.944945,161.727472 370.371141,159.182988 C372.797336,156.638505 375.700773,154.666892 379.081537,153.268092 C382.462302,151.869292 386.194345,151.169903 390.277778,151.169903 C392.319494,151.169903 394.18883,151.323103 395.885841,151.629506 C397.582852,151.93591 399.167148,152.375526 400.638775,152.948368 C402.110401,153.52121 403.495831,154.233921 404.795105,155.086523 C406.094379,155.939125 407.367119,156.924931 408.613361,158.043971 L407.380383,159.842419 C407.168256,160.162145 406.836814,160.322005 406.386045,160.322005 C406.147403,160.322005 405.842476,160.182127 405.471255,159.902367 C405.100034,159.622607 404.629385,159.276243 404.059296,158.863264 C403.489206,158.450285 402.799805,157.997347 401.991074,157.504437 C401.182342,157.011526 400.221158,156.558588 399.107495,156.145609 C397.993831,155.73263 396.707834,155.386266 395.249465,155.106506 C393.791096,154.826746 392.133884,154.686868 390.277778,154.686868 C386.85724,154.686868 383.715164,155.279684 380.851458,156.465333 C377.987752,157.650983 375.521819,159.342839 373.453587,161.540953 C371.385355,163.739068 369.774544,166.403409 368.621107,169.534056 C367.46767,172.664704 366.89096,176.174973 366.89096,180.064969 C366.89096,184.06154 367.461041,187.631757 368.60122,190.775726 C369.741399,193.919696 371.319066,196.577376 373.334267,198.748846 C375.349467,200.920316 377.729225,202.585529 380.47361,203.744535 C383.217995,204.903541 386.194349,205.483035 389.402761,205.483035 C391.417961,205.483035 393.21438,205.349818 394.79207,205.08338 C396.36976,204.816942 397.821478,204.417291 399.147268,203.884414 C400.473058,203.351538 401.706024,202.698775 402.846204,201.926104 C403.986383,201.153434 405.113288,200.247558 406.226951,199.208449 C406.35953,199.101874 406.485478,199.015283 406.6048,198.948674 C406.724121,198.882064 406.863326,198.84876 407.022421,198.84876 L407.022421,198.84876 Z M479.6054,180.064969 C479.6054,184.434553 478.955773,188.39776 477.656499,191.954709 C476.357225,195.511657 474.527662,198.549006 472.167756,201.066846 C469.80785,203.584686 466.983959,205.529654 463.696,206.901811 C460.408041,208.273967 456.762174,208.960034 452.758288,208.960034 C448.807434,208.960034 445.188081,208.273967 441.900122,206.901811 C438.612163,205.529654 435.788273,203.584686 433.428367,201.066846 C431.068461,198.549006 429.232269,195.511657 427.919737,191.954709 C426.607205,188.39776 425.950949,184.434553 425.950949,180.064969 C425.950949,175.722028 426.607205,171.772143 427.919737,168.215194 C429.232269,164.658246 431.068461,161.620897 433.428367,159.103057 C435.788273,156.585217 438.612163,154.633588 441.900122,153.24811 C445.188081,151.862632 448.807434,151.169903 452.758288,151.169903 C456.762174,151.169903 460.408041,151.855971 463.696,153.228127 C466.983959,154.600283 469.80785,156.551913 472.167756,159.083074 C474.527662,161.614236 476.357225,164.658246 477.656499,168.215194 C478.955773,171.772143 479.6054,175.722028 479.6054,180.064969 L479.6054,180.064969 Z M475.389409,180.064969 C475.389409,176.121685 474.845844,172.578112 473.758696,169.434142 C472.671548,166.290173 471.140284,163.625832 469.164857,161.44104 C467.18943,159.256247 464.809672,157.584374 462.025513,156.425368 C459.241354,155.266362 456.15231,154.686868 452.758288,154.686868 C449.417297,154.686868 446.361397,155.266362 443.590496,156.425368 C440.819595,157.584374 438.433209,159.256247 436.431266,161.44104 C434.429323,163.625832 432.878172,166.290173 431.777766,169.434142 C430.677361,172.578112 430.127166,176.121685 430.127166,180.064969 C430.127166,184.034896 430.677361,187.58513 431.777766,190.715778 C432.878172,193.846425 434.429323,196.504105 436.431266,198.688898 C438.433209,200.87369 440.819595,202.538903 443.590496,203.684587 C446.361397,204.830271 449.417297,205.403104 452.758288,205.403104 C456.15231,205.403104 459.241354,204.830271 462.025513,203.684587 C464.809672,202.538903 467.18943,200.87369 469.164857,198.688898 C471.140284,196.504105 472.671548,193.846425 473.758696,190.715778 C474.845844,187.58513 475.389409,184.034896 475.389409,180.064969 L475.389409,180.064969 Z M488.514665,205.283207 C488.514665,204.776975 488.607468,204.297394 488.793079,203.844449 C488.97869,203.391504 489.237215,202.998514 489.568662,202.665466 C489.90011,202.332419 490.284583,202.065985 490.722094,201.866156 C491.159604,201.666327 491.643511,201.566415 492.173827,201.566415 C492.677627,201.566415 493.154904,201.666327 493.605673,201.866156 C494.056441,202.065985 494.447543,202.332419 494.778991,202.665466 C495.110438,202.998514 495.375592,203.391504 495.574461,203.844449 C495.773329,204.297394 495.872762,204.776975 495.872762,205.283207 C495.872762,205.816083 495.773329,206.302326 495.574461,206.741949 C495.375592,207.181571 495.110438,207.567901 494.778991,207.900948 C494.447543,208.233996 494.056441,208.493769 493.605673,208.680276 C493.154904,208.866783 492.677627,208.960034 492.173827,208.960034 C491.13971,208.960034 490.271331,208.607009 489.568662,207.900948 C488.865994,207.194887 488.514665,206.322316 488.514665,205.283207 L488.514665,205.283207 Z" id="DESIGN-CO" fill="#BF8A49"></path>
                <path d="M54.2172692,8.90012136 C67.2052501,8.90012136 76.2666321,21.7223301 84.572899,40.2768204 L87.2913136,40.2768204 L86.0831293,7.54247573 L84.421876,7.54247573 C83.3647147,9.50351942 82.7606226,10.559466 80.3442541,10.559466 C75.0584479,10.559466 67.8093422,5.88313107 52.1029467,5.88313107 C21.1432248,5.88313107 0,25.1918689 0,61.6974515 C0,97.7504854 19.6329944,114.645631 51.6498776,114.645631 C68.2624113,114.645631 76.5686782,109.969296 81.7034614,109.969296 C84.1198299,109.969296 84.723922,111.025243 85.7810833,112.986286 L87.4423366,112.986286 L88.4994979,79.3468447 L85.7810833,79.3468447 C77.3237934,98.9572816 67.5072962,111.628641 55.2744304,111.628641 C38.8129197,111.628641 30.8086989,93.6775485 30.8086989,65.9212379 L30.8086989,54.0041262 C30.8086989,22.7782767 38.9639428,8.90012136 54.2172692,8.90012136 L54.2172692,8.90012136 Z M99.7844954,0 L99.7844954,2.71529126 L108.694854,2.71529126 L108.694854,110.421845 L100.388588,110.421845 L100.388588,113.137136 L145.242429,113.137136 L145.242429,110.421845 L136.785139,110.421845 L136.785139,0 L99.7844954,0 Z M186.414957,77.6875 C164.818663,77.6875 151.679659,81.1570388 151.679659,96.3928398 C151.679659,111.477791 163.459455,114.645631 174.031068,114.645631 C184.60268,114.645631 188.982348,110.723544 191.398717,103.482767 C193.210993,110.874393 200.00703,114.645631 212.239895,114.645631 C225.227876,114.645631 230.815729,109.516748 231.570844,91.4148058 L229.305498,91.2639563 C228.550383,103.935316 225.982991,106.801456 223.264577,106.801456 C220.697185,106.801456 218.884909,105.142112 218.884909,98.9572816 L218.884909,68.3348301 C218.884909,46.4616505 210.880688,39.8242718 187.170072,39.8242718 C166.630939,39.8242718 155.606258,45.7074029 155.606258,58.3787621 C155.606258,65.7703883 159.23081,70.8992718 168.594239,70.8992718 C176.14539,70.8992718 181.884266,66.2229369 181.884266,59.1330097 C181.884266,56.2668689 181.431196,54.3058252 180.676081,52.3447816 L176.900505,52.3447816 C176.296413,50.6854369 175.994367,49.1769417 175.994367,47.9701456 C175.994367,43.1429612 180.374035,41.936165 183.09245,41.936165 C189.133371,41.936165 190.794625,46.914199 190.794625,66.0720874 L190.794625,77.6875 L186.414957,77.6875 Z M184.300634,108.61165 C181.431196,108.61165 180.374035,107.103155 180.374035,96.2419903 L180.374035,93.8283981 C180.374035,84.6265777 183.394496,80.1010922 189.737463,80.1010922 L190.794625,80.1010922 L190.794625,94.1300971 C190.794625,103.784466 187.170072,108.61165 184.300634,108.61165 L184.300634,108.61165 Z M287.701734,68.6365291 L272.750453,44.0480583 L283.322066,44.0480583 L283.322066,41.332767 L232.27628,41.332767 L232.27628,44.0480583 L241.035616,44.0480583 L263.991117,80.2519417 L244.811192,110.421845 L234.843672,110.421845 L234.843672,113.137136 L258.554288,113.137136 L258.554288,110.421845 L248.586768,110.421845 L265.803394,83.268932 L282.415928,110.421845 L271.693292,110.421845 L271.693292,113.137136 L322.134985,113.137136 L322.134985,110.421845 L314.281788,110.421845 L289.665033,71.8043689 L309.298028,44.0480583 L317.151225,44.0480583 L317.151225,41.332767 L294.648793,41.332767 L294.648793,44.0480583 L305.522452,44.0480583 L287.701734,68.6365291 Z M369.197412,83.4197816 C369.197412,103.030218 368.744343,111.93034 360.13603,111.93034 C350.923625,111.93034 350.621579,100.616626 350.621579,83.1180825 L350.621579,71.3518204 C350.621579,54.3058252 351.074648,42.5395631 360.287053,42.5395631 C368.744343,42.5395631 369.197412,54.3058252 369.197412,70.5975728 L369.197412,83.4197816 Z M321.625156,77.5366505 C321.625156,101.069175 334.462114,114.645631 359.833984,114.645631 C386.716084,114.645631 398.193834,100.918325 398.193834,76.1790049 C398.193834,51.7413835 386.111992,39.8242718 360.740122,39.8242718 C336.425413,39.8242718 321.625156,52.7973301 321.625156,77.5366505 L321.625156,77.5366505 Z M404.782088,41.332767 L404.782088,44.0480583 L413.088354,44.0480583 L413.088354,110.421845 L404.782088,110.421845 L404.782088,113.137136 L447.672629,113.137136 L447.672629,110.421845 L441.178639,110.421845 L441.178639,68.7873786 C441.178639,56.568568 447.068537,47.0650485 453.411504,47.0650485 C457.18708,47.0650485 458.999357,48.5735437 458.999357,61.3957524 L458.999357,110.421845 L452.807412,110.421845 L452.807412,113.137136 L495.546931,113.137136 L495.546931,110.421845 L487.089641,110.421845 L487.089641,65.0161408 C487.089641,46.7633495 477.726213,39.8242718 463.681071,39.8242718 C448.72979,39.8242718 443.74603,47.6684466 441.178639,55.2109223 L441.178639,41.332767 L404.782088,41.332767 Z" id="Claxon" fill="#FFFFFF"></path>
            </g>
        </g>
    </g>
</svg>
