<svg xmlns="http://www.w3.org/2000/svg" alt="Claxon Design Co." width="175" height="59" class="logo-small" viewBox="0 0 175 59" xmlns:xlink="http://www.w3.org/1999/xlink">
  <defs>
    <path id="a" class="cd" d="M111.24 29.68c0 4.3734-.6533 8.3066-1.96 11.8-1.3067 3.4934-3.1467 6.4667-5.52 8.92-2.3733 2.4533-5.2133 4.3333-8.52 5.64-3.3067 1.3067-6.9733 1.96-11 1.96H63.6V1.4h20.64c4.0267 0 7.6933.6533 11 1.96s6.1467 3.1867 8.52 5.64c2.3733 2.4533 4.2133 5.4266 5.52 8.92 1.3067 3.4934 1.96 7.4133 1.96 11.76zm-4.24 0c0-3.9467-.5467-7.4667-1.64-10.56s-2.6333-5.7067-4.62-7.84-4.38-3.76-7.18-4.88-5.9066-1.68-9.32-1.68H67.72v49.96h16.52c3.4134 0 6.52-.56 9.32-1.68 2.8-1.12 5.1933-2.7467 7.18-4.88 1.9867-2.1333 3.5267-4.7467 4.62-7.84 1.0933-3.0933 1.64-6.6266 1.64-10.6z"/>
  </defs>
  <g fill="none" fill-rule="evenodd">
    <path id="co" class="co" d="M138.092 16.894c.2053 0 .3827.0793.532.238l1.484 1.61c-.8213 1.0174-1.8317 1.7967-3.031 2.338-1.1993.5413-2.639.812-4.319.812-1.5027 0-2.8537-.2567-4.053-.77-1.1993-.5133-2.2237-1.2273-3.073-2.142-.8493-.9147-1.5003-2.0066-1.953-3.276-.4527-1.2693-.679-2.6553-.679-4.158 0-1.5213.252-2.9143.756-4.179.504-1.2647 1.2133-2.3543 2.128-3.269.9147-.9147 2.009-1.6263 3.283-2.135 1.274-.5087 2.681-.763 4.221-.763 1.5027 0 2.8163.2403 3.941.721 1.1247.4807 2.0883 1.1177 2.891 1.911l-1.26 1.75c-.0747.112-.1703.21-.287.294-.1167.084-.2777.126-.483.126-.2147 0-.434-.084-.658-.252-.224-.168-.5087-.35-.854-.546-.3453-.196-.7817-.378-1.309-.546-.5273-.168-1.197-.252-2.009-.252-.952 0-1.827.1657-2.625.497-.798.3313-1.484.805-2.058 1.421-.574.616-1.022 1.365-1.344 2.247-.322.882-.483 1.8737-.483 2.975 0 1.1387.161 2.1513.483 3.038.322.8867.7583 1.6333 1.309 2.24.5507.6067 1.1993 1.071 1.946 1.393.7467.322 1.5493.483 2.408.483.5133 0 .9777-.028 1.393-.084.4153-.056.798-.1447 1.148-.266.35-.1213.6813-.2777.994-.469.3127-.1913.623-.427.931-.707.0933-.084.1913-.1517.294-.203.1027-.0513.2147-.077.336-.077zm27.622-5.348c0 1.484-.2473 2.8583-.742 4.123-.4947 1.2647-1.19 2.359-2.086 3.283-.896.924-1.974 1.645-3.234 2.163-1.26.518-2.6553.777-4.186.777s-2.9283-.259-4.193-.777c-1.2647-.518-2.3473-1.239-3.248-2.163-.9007-.924-1.5983-2.0183-2.093-3.283-.4947-1.2647-.742-2.639-.742-4.123 0-1.484.2473-2.8583.742-4.123.4947-1.2647 1.1923-2.359 2.093-3.283.9007-.924 1.9833-1.645 3.248-2.163 1.2647-.518 2.6623-.777 4.193-.777 1.5307 0 2.926.2613 4.186.784 1.26.5227 2.338 1.2437 3.234 2.163.896.9194 1.5913 2.0113 2.086 3.276.4947 1.2647.742 2.639.742 4.123zm-3.864 0c0-1.1107-.147-2.107-.441-2.989-.294-.882-.7163-1.631-1.267-2.247-.5507-.616-1.2203-1.0873-2.009-1.414s-1.6777-.49-2.667-.49c-.9893 0-1.8807.1633-2.674.49-.7933.3267-1.4677.798-2.023 1.414-.5553.616-.9823 1.365-1.281 2.247-.2987.882-.448 1.8783-.448 2.989 0 1.1107.1493 2.107.448 2.989.2987.882.7257 1.6287 1.281 2.24.5553.6113 1.2297 1.0803 2.023 1.407.7933.3267 1.6847.49 2.674.49.9893 0 1.8783-.1633 2.667-.49.7887-.3267 1.4583-.7957 2.009-1.407.5507-.6113.973-1.358 1.267-2.24.294-.882.441-1.8783.441-2.989zm8.428 8.218c0-.2893.0537-.5647.161-.826s.2567-.4853.448-.672c.1913-.1867.4177-.336.679-.448.2613-.112.5413-.168.84-.168.2893 0 .5647.056.826.168.2613.112.4853.2613.672.448.1867.1867.336.4107.448.672.112.2613.168.5367.168.826 0 .2987-.056.5763-.168.833-.112.2567-.2613.4783-.448.665-.1867.1867-.4107.3337-.672.441-.2613.1073-.5367.161-.826.161-.2987 0-.5787-.0537-.84-.161s-.4877-.2543-.679-.441c-.1913-.1867-.3407-.4083-.448-.665-.1073-.2567-.161-.5343-.161-.833z"/>
    <path fill="#BF8A49" class="cd" d="M45.52 48.48c.2667 0 .4933.0933.68.28l1.6 1.72c-1.1733 1.2533-2.4533 2.38-3.84 3.38-1.3867 1-2.9 1.8533-4.54 2.56-1.64.7067-3.44 1.2533-5.4 1.64-1.96.3867-4.1133.58-6.46.58-3.92 0-7.5133-.6867-10.78-2.06-3.2667-1.3733-6.0667-3.32-8.4-5.84-2.3333-2.52-4.1533-5.5666-5.46-9.14C1.6133 38.0266.96 34.0534.96 29.68c0-4.2934.6733-8.2133 2.02-11.76 1.3467-3.5467 3.24-6.5933 5.68-9.14 2.44-2.5467 5.36-4.52 8.76-5.92 3.4-1.4 7.1533-2.1 11.26-2.1 2.0533 0 3.9333.1533 5.64.46 1.7067.3067 3.3.7467 4.78 1.32 1.48.5733 2.8733 1.2867 4.18 2.14 1.3067.8533 2.5867 1.84 3.84 2.96l-1.24 1.8c-.2133.32-.5467.48-1 .48-.24 0-.5467-.14-.92-.42-.3733-.28-.8467-.6267-1.42-1.04-.5733-.4133-1.2667-.8667-2.08-1.36-.8133-.4933-1.78-.9467-2.9-1.36-1.12-.4133-2.4133-.76-3.88-1.04s-3.1333-.42-5-.42c-3.44 0-6.6.5933-9.48 1.78-2.88 1.1867-5.36 2.88-7.44 5.08s-3.7 4.8667-4.86 8c-1.16 3.1333-1.74 6.6466-1.74 10.54 0 4 .5733 7.5733 1.72 10.72 1.1467 3.1467 2.7333 5.8067 4.76 7.98 2.0267 2.1733 4.42 3.84 7.18 5 2.76 1.16 5.7533 1.74 8.98 1.74 2.0267 0 3.8333-.1333 5.42-.4 1.5867-.2667 3.0467-.6667 4.38-1.2s2.5733-1.1867 3.72-1.96c1.1467-.7733 2.28-1.68 3.4-2.72.1333-.1067.26-.1933.38-.26.12-.0667.26-.1.42-.1z"/>
    <path fill="#BF8A49" class="cd" fill-rule="nonzero" d="M172.5094 33h1.5v-3H123v3h1.5"/>
    <use fill="#BF8A49" class="cd" xlink:href="#a"/>
  </g>
</svg>
