<svg class="menu-icon" width="71px" height="46px" viewBox="0 0 71 46" version="1.1" xmlns="http://www.w3.org/2000/svg" xmlns:xlink="http://www.w3.org/1999/xlink">
    <defs></defs>
    <g id="menu-icon" stroke="none" stroke-width="1" fill="none" fill-rule="evenodd">
        <path d="M3,5.5 C1.61928813,5.5 0.5,4.38071187 0.5,3 C0.5,1.61928813 1.61928813,0.5 3,0.5 L68,0.5 C69.3807119,0.5 70.5,1.61928813 70.5,3 C70.5,4.38071187 69.3807119,5.5 68,5.5 L3,5.5 Z" id="Line" fill="#D68F32" fill-rule="nonzero"></path>
        <path d="M3,25.5 C1.61928813,25.5 0.5,24.3807119 0.5,23 C0.5,21.6192881 1.61928813,20.5 3,20.5 L53,20.5 C54.3807119,20.5 55.5,21.6192881 55.5,23 C55.5,24.3807119 54.3807119,25.5 53,25.5 L3,25.5 Z" id="Line" fill="#D68F32" fill-rule="nonzero"></path>
        <path d="M3,45.5 C1.61928813,45.5 0.5,44.3807119 0.5,43 C0.5,41.6192881 1.61928813,40.5 3,40.5 L68,40.5 C69.3807119,40.5 70.5,41.6192881 70.5,43 C70.5,44.3807119 69.3807119,45.5 68,45.5 L3,45.5 Z" id="Line" fill="#D68F32" fill-rule="nonzero"></path>
    </g>
</svg>
