<svg width="326px" height="316px" viewBox="0 0 326 316" version="1.1" xmlns="http://www.w3.org/2000/svg" xmlns:xlink="http://www.w3.org/1999/xlink">
    <title>Funding</title>
    <g id="Page-1" stroke="none" stroke-width="1" fill="none" fill-rule="evenodd">
        <g id="Funding-Copy" transform="translate(3.000000, 3.000000)" stroke="#BF8A49" stroke-width="5">
            <path d="M160,40 L160,0" id="Path-3" stroke-linecap="round" transform="translate(160.000000, 20.000000) scale(-1, 1) translate(-160.000000, -20.000000) "></path>
            <path d="M160,91 L160,50" id="Path-3" stroke-linecap="round" transform="translate(160.000000, 70.500000) scale(-1, 1) translate(-160.000000, -70.500000) "></path>
            <path d="M10,109.5 L80,40" id="Path-3-Copy" stroke-linecap="round" transform="translate(45.000000, 74.750000) scale(-1, 1) translate(-45.000000, -74.750000) "></path>
            <path d="M280,110 L240,70" id="Path-3-Copy" stroke-linecap="round" transform="translate(260.000000, 90.000000) scale(-1, 1) translate(-260.000000, -90.000000) "></path>
            <path d="M310,60 L290,40" id="Path-3-Copy-2" stroke-linecap="round" transform="translate(300.000000, 50.000000) scale(-1, 1) translate(-300.000000, -50.000000) "></path>
            <path d="M229.5,101.5 L199,40" id="Path-4" stroke-linecap="round" stroke-linejoin="round" transform="translate(214.500000, 71.000000) scale(-1, 1) translate(-214.500000, -71.000000) "></path>
            <path d="M119.5,100.5 L90,40" id="Path-4" stroke-linecap="round" stroke-linejoin="round"></path>
            <path d="M320,171.5 L260,171.5" id="Path-5" stroke-linecap="round" stroke-linejoin="round" transform="translate(290.000000, 171.500000) scale(-1, 1) translate(-290.000000, -171.500000) "></path>
            <path d="M59.5064087,171 L40,171" id="Path-5-Copy" stroke-linecap="round" stroke-linejoin="round" transform="translate(50.000000, 171.000000) scale(-1, 1) translate(-50.000000, -171.000000) "></path>
            <path d="M29.5,171 L0,171" id="Path-5-Copy-2" stroke-linecap="round" stroke-linejoin="round" transform="translate(15.000000, 171.000000) scale(-1, 1) translate(-15.000000, -171.000000) "></path>
            <path d="M0.294921875,140.056641 L60,110" id="Path-6" stroke-linecap="round" stroke-linejoin="round" transform="translate(30.147461, 125.028320) scale(-1, 1) translate(-30.147461, -125.028320) "></path>
            <path d="M260.294922,140.056641 L320,110" id="Path-6" stroke-linecap="round" stroke-linejoin="round"></path>
            <polyline id="Path-12" stroke-linecap="round" stroke-linejoin="round" fill="#FFFFFF" points="150 131 140 111 150 101 160 111 170 101 180 111 170 131"></polyline>
            <path d="M140,141 C140,131 140,131 160,131 C180,131 180,131 180,141 C180,141 140,141 140,141 Z" id="Path-11" fill="#FFFFFF"></path>
            <path d="M90.0122535,291 C90.0122535,282 90.0122536,260 90.0122535,241.041612 C90.0122536,190 93.9236566,141 160.211159,141 C225.496822,141 229.711639,184.230809 229.981709,238.533982 C230.002084,242.630901 229.981705,286.790844 229.981705,291 C229.981705,300 196.46973,310 161,310 C125.53027,310 90.0122535,300 90.0122535,291 Z" id="Path-9" stroke-linecap="round" stroke-linejoin="round" fill="#FFFFFF"></path>
            <path d="M180,211 C180,201 180,191 160,191 C140,191 140,201 140,211 C140,221 160,221 160,221 C160,221 180,221 180,231 C180,241 180,251 160,251 C140,251 140,241 140,231" id="Path-10" stroke-linecap="round" stroke-linejoin="round"></path>
            <path d="M160,171 L160,181" id="Path-13" stroke-linecap="round" stroke-linejoin="round"></path>
            <path d="M160,261 L160,271" id="Path-13-Copy" stroke-linecap="round" stroke-linejoin="round"></path>
        </g>
    </g>
</svg>
