<?xml version="1.0" encoding="UTF-8" standalone="no"?>
<svg width="393px" height="377px" viewBox="0 0 393 377" version="1.1" xmlns="http://www.w3.org/2000/svg" xmlns:xlink="http://www.w3.org/1999/xlink">
    <!-- Generator: Sketch 39.1 (31720) - http://www.bohemiancoding.com/sketch -->
    <title>Social Responsibility</title>
    <desc>Created with Sketch.</desc>
    <defs></defs>
    <g id="Page-1" stroke="none" stroke-width="1" fill="none" fill-rule="evenodd" stroke-linecap="round">
        <g id="Social-Responsibility" transform="translate(3.000000, 3.000000)" stroke="#BF8A49" stroke-width="5">
            <path d="M143.015873,185.079365 C143.015873,201.904762 126.190476,218.730159 126.190476,243.968254 C126.190476,260.793651 134.603175,269.206349 134.603175,269.206349" id="Path-14" stroke-linejoin="round"></path>
            <path d="M143.015873,227.142857 C143.015873,227.142857 141.972158,232.320841 140.054176,241.738149 C138.136194,251.155458 137.483538,252.144756 137.483538,254.306672 C137.483538,260.334561 151.428571,260.793651 151.428571,260.793651" id="Path-15" stroke-linejoin="round"></path>
            <path d="M151.428571,294.444444 C151.428571,294.444444 149.833938,283.635688 152.964875,280.742591 C156.095812,277.849493 159.84127,277.619048 159.84127,277.619048 C159.84127,277.619048 161.399312,271.49233 168.257254,269.206349 C175.115197,266.920368 185.079365,269.206349 185.079365,269.206349" id="Path-17" stroke-linejoin="round"></path>
            <path d="M159.84127,218.730159 C159.84127,218.730159 159.84127,201.904762 176.666667,201.904762 C193.492063,201.904762 210.31746,210.31746 210.31746,210.31746" id="Path-18" stroke-linejoin="round"></path>
            <path d="M143.015873,185.079365 C159.84127,185.079365 168.253968,185.079365 185.079365,185.079365 C232.675192,185.079365 252.380952,227.142857 260.793651,227.142857 C269.206349,227.142857 270.047619,227.142857 275.936508,222.095238 C281.825397,217.047619 281.825397,210.31746 292.761905,210.31746" id="Path-16" stroke-linejoin="round"></path>
            <path d="M176.666667,218.730159 C185.079365,218.730159 201.904762,210.31746 201.904762,210.31746" id="Path-19" stroke-linejoin="round"></path>
            <path d="M294.444444,210.31746 C294.444444,210.31746 235.555561,159.84127 210.31746,151.428571 C185.07936,143.015873 143.015873,159.84127 143.015873,159.84127 C143.015873,159.84127 117.777777,176.666667 109.365079,210.31746 C109.365079,235.555556 100.952381,260.793651 126.190476,277.619048" id="Path-20" stroke-linejoin="round"></path>
            <path d="M311.269847,193.492063 C311.269847,193.492063 260.469958,109.365079 193.492063,109.365079 C126.514167,109.365079 109.365079,159.84127 109.365079,159.84127 C102.83538,178.655645 109.365079,210.31746 109.365079,210.31746" id="Path-21" stroke-linejoin="round"></path>
            <path d="M252.380952,117.777778 L311.269841,25.2380952 L252.380952,117.777778 Z" id="Path-22" stroke-linejoin="round"></path>
            <path d="M302.857143,159.84127 L386.984127,100.952381" id="Path-23" stroke-linejoin="round"></path>
            <path d="M194.333333,98.4285714 L185.079365,0" id="Path-24" stroke-linejoin="round"></path>
            <path d="M81.9999999,54.9999993 L50.4761905,16.8253968" id="Path-25" stroke-linejoin="round"></path>
            <path d="M132.920635,114.412698 L90,64" id="Path-25" stroke-linejoin="round"></path>
            <path d="M96.7460317,175.825397 L0,143.015873" id="Path-26" stroke-linejoin="round"></path>
            <path d="M158.15873,328.936508 C158.15873,328.936508 151.428572,319.68254 159.84127,311.269841 C168.253968,302.857143 168.25397,302.857143 185.079365,294.444444 C201.904761,286.031746 235.555556,277.619048 235.555556,277.619048 C235.555556,277.619048 243.968255,269.206349 252.380952,260.793651 C260.793649,252.380952 260.793651,243.968254 260.793651,243.968254 L262.47619,257.428571 C262.47619,257.428571 265.841268,263.31746 270.888889,263.31746 C275.936509,263.31746 283.507938,263.31746 291.920635,258.269841 C300.333332,253.222222 306.222224,245.650794 304.539683,232.190476 C302.857141,218.730159 293.603175,209.47619 293.603175,209.47619" id="Path-27" stroke-linejoin="round"></path>
            <path d="M294.444444,185.079365 L286.031746,193.492063" id="Path-28" stroke-linejoin="round"></path>
            <path d="M286.438415,175.188694 L277.619048,185.079365" id="Path-29"></path>
            <path d="M265.575908,176.508929 L276.028522,162.107933" id="Path-30"></path>
            <path d="M251.973462,165.896934 L262.252728,149.20545" id="Path-31"></path>
            <path d="M237.207698,156.673363 L247.47957,137.719324" id="Path-31-Copy"></path>
            <path d="M222.52491,147.366815 L230.053618,128.190957" id="Path-31-Copy-2"></path>
            <path d="M204.428571,142.656855 L210.775887,120.432214" id="Path-31-Copy-3"></path>
            <path d="M185.079365,117.777778 L185.079365,143.015873" id="Path-32"></path>
            <path d="M166.844184,119.427455 L168.787156,144.485631" id="Path-33"></path>
            <path d="M146.790086,129.26144 L152.103888,150.28497" id="Path-34"></path>
            <path d="M130.047666,141.51161 L136.355546,156.834387" id="Path-35"></path>
            <path d="M119.064329,156.398965 L124.122628,168.152917" id="Path-36"></path>
            <path d="M114.844014,183.394361 L111.241505,178.950583" id="Path-37"></path>
            <path d="M287.234499,266.202753 C287.234499,266.202753 283.195746,278.097191 286.79579,293.310702 C290.395833,308.524213 309.114087,347.270275 309.114087,347.270275" id="Path-38"></path>
            <path d="M185.079365,371 L185.920635,350.809524 C185.920635,350.809524 177.488704,347.335299 172.460317,343.238095 C167.431931,339.140891 162.365079,333.984127 162.365079,333.984127" id="Path-39" stroke-linejoin="round"></path>
            <path d="M98.4285714,254.904762 L15.1428571,276.777778" id="Path-40"></path>
            <path d="M127.873016,305.380952 L51.3174603,364.269841" id="Path-41"></path>
        </g>
    </g>
</svg>