<svg width="326px" height="313px" viewBox="0 0 326 313" version="1.1" xmlns="http://www.w3.org/2000/svg" xmlns:xlink="http://www.w3.org/1999/xlink">
    <title>Social Responsibility</title>
    <g id="Page-1" stroke="none" stroke-width="1" fill="none" fill-rule="evenodd" stroke-linecap="round">
        <g id="Social-Responsibility" transform="translate(163.000000, 156.500000) scale(-1, 1) translate(-163.000000, -156.500000) translate(3.000000, 3.000000)" stroke="#BF8A49" stroke-width="5">
            <path d="M118.256019,187.818383 C118.256019,187.818383 117.392999,192.09992 115.807071,199.886842 C114.221142,207.673764 113.681478,208.491788 113.681478,210.279418 C113.681478,215.26372 125.212255,215.643329 125.212255,215.643329" id="nose" stroke-linejoin="round"></path>
            <path d="M125.212255,243.468274 C125.212255,243.468274 123.893695,234.530801 126.482584,232.138576 C129.071472,229.746351 132.168492,229.555802 132.168492,229.555802 C132.168492,229.555802 133.456795,224.489782 139.127446,222.599565 C144.798096,220.709348 153.037201,222.599565 153.037201,222.599565" id="mouth" stroke-linejoin="round"></path>
            <path d="M130.777245,271.988844 C130.777245,271.988844 125.212256,264.336984 132.168492,257.380747 C139.124728,250.424511 139.124729,250.424511 153.037201,243.468274 C166.949673,236.512038 194.77462,229.555802 194.77462,229.555802 C194.77462,229.555802 201.730857,222.599565 208.687092,215.643329 C215.643328,208.687092 215.643329,201.730856 215.643329,201.730856 L217.034576,212.860834 C217.034576,212.860834 219.81707,217.7302 223.990813,217.7302 C228.164556,217.7302 234.425168,217.7302 241.381404,213.556458 C248.337639,209.382716 253.207007,203.122103 251.815758,191.992125 C250.42451,180.862147 242.772651,173.210287 242.772651,173.210287" id="jaw-and-ear" stroke-linejoin="round"></path>
            <path d="M237.506562,220.115971 C237.506562,220.115971 234.167025,229.951166 237.143806,242.530813 C240.120586,255.11046 255.598212,287.148548 255.598212,287.148548" id="neck"></path>
            <path d="M153.037201,306.770026 L153.732825,290.075058 C153.732825,290.075058 146.760685,287.202314 142.602846,283.814446 C138.445008,280.426577 134.255363,276.162586 134.255363,276.162586" id="throat" stroke-linejoin="round"></path>
            <g id="eye" transform="translate(132.000000, 166.000000)" stroke-linejoin="round">
                <path d="M0.168491858,14.8621468 C0.168491858,14.8621468 0.168491858,0.949673928 14.0809647,0.949673926 C27.9934375,0.949673925 41.9059103,7.90591034 41.9059103,7.90591034" id="Path-18"></path>
                <path d="M14.0809647,14.8621468 C21.0372011,14.8621468 34.9496739,7.90591034 34.9496739,7.90591034" id="Path-19"></path>
            </g>
            <g id="hair" transform="translate(89.000000, 123.000000)" stroke-linejoin="round">
                <path d="M29.256019,30.0372011 C29.256019,43.9496739 15.3435461,57.8621468 15.3435462,78.730856 C15.3435461,92.6433288 22.2997826,99.5995652 22.2997826,99.5995652" id="Path-14"></path>
                <path d="M29.256019,30.0372011 C43.1684919,30.0372011 50.1247283,30.0372011 64.0372011,30.0372011 C103.392924,30.0372011 119.687092,64.8183832 126.643329,64.8183832 C133.599565,64.8183832 134.295189,64.8183832 139.164554,60.6446413 C144.03392,56.4708995 144.03392,50.9059103 153.077027,50.9059103" id="Path-16"></path>
                <path d="M154.468274,50.9059103 C154.468274,50.9059103 105.774624,9.16849195 84.9059103,2.21225544 C64.0371968,-4.74398106 29.256019,9.16849186 29.256019,9.16849186 C29.256019,9.16849186 8.38730955,23.0809647 1.43107338,50.9059103 C1.43107339,71.7746196 -5.52516277,92.6433288 15.3435462,106.555802" id="Path-20"></path>
            </g>
            <g id="crown" transform="translate(88.000000, 90.000000)">
                <path d="M169.380752,69.9934375 C169.380752,69.9934375 127.375676,0.431073384 71.9934368,0.431073377 C16.6111976,0.43107337 2.43107336,42.1684919 2.43107336,42.1684919 C-2.96816156,57.7255983 2.43107336,83.9059103 2.43107336,83.9059103" id="Path-21" stroke-linejoin="round"></path>
                <g id="crown-lines" transform="translate(3.000000, 7.000000)">
                    <path d="M152.468274,56.0372011 L145.512038,62.9934375" id="Path-28" stroke-linejoin="round"></path>
                    <path d="M145.848301,47.8588681 L138.555802,56.0372011" id="Path-29"></path>
                    <path d="M128.59765,48.9505353 L137.240638,37.0427356" id="Path-30"></path>
                    <path d="M117.35015,40.1757593 L125.849801,26.3740156" id="Path-31"></path>
                    <path d="M105.140732,32.5490341 L113.63427,16.8764432" id="Path-31-Copy"></path>
                    <path d="M92.9999257,24.8536976 L99.2252138,8.99769031" id="Path-31-Copy-2"></path>
                    <path d="M78.0365449,20.9591562 L83.2849709,2.58219259" id="Path-31-Copy-3"></path>
                    <path d="M62.0372011,0.38730979 L62.0372011,21.256019" id="Path-32"></path>
                    <path d="M46.9590152,1.75138427 L48.5656069,22.4713224" id="Path-33"></path>
                    <path d="M30.3768149,9.88284422 L34.7706565,27.2666421" id="Path-34"></path>
                    <path d="M16.5329534,20.0121842 L21.7487721,32.6821808" id="Path-35"></path>
                    <path d="M7.45112485,32.3221412 L11.6336979,42.0411719" id="Path-36"></path>
                    <path d="M3.96145821,54.6439159 L0.982640171,50.9694742" id="Path-37"></path>
                </g>
            </g>
            <g id="rays">
                <path d="M208.687092,97.3873098 L257.380747,20.8687092 L208.687092,97.3873098 Z" id="Path-22" stroke-linejoin="round"></path>
                <path d="M250.424511,132.168492 L319.986875,83.474837" id="Path-23" stroke-linejoin="round"></path>
                <path d="M160.689061,81.387966 L153.037201,0" id="Path-24" stroke-linejoin="round"></path>
                <path d="M67.8036175,45.4780356 L41.7374185,13.9124728" id="Path-25" stroke-linejoin="round"></path>
                <path d="M109.908535,94.6048152 L74.4186047,52.9198966" id="Path-25" stroke-linejoin="round"></path>
                <path d="M79.9967188,145.385341 L0,118.256019" id="Path-26" stroke-linejoin="round"></path>
                <path d="M81.387966,210.773963 L12.5212255,228.860178" id="Path-40"></path>
                <path d="M105.734793,252.511382 L42.4330421,301.205037" id="Path-41"></path>
            </g>
        </g>
    </g>
</svg>
