<svg width="326px" height="313px" viewBox="0 0 326 313" version="1.1" xmlns="http://www.w3.org/2000/svg" xmlns:xlink="http://www.w3.org/1999/xlink">
    <title>Social Responsibility</title>
    <g id="Page-1" stroke="none" stroke-width="1" fill="none" fill-rule="evenodd" stroke-linecap="round">
        <g id="Social-Responsibility" transform="translate(163.000000, 156.385013) scale(-1, 1) translate(-163.000000, -156.385013) translate(3.000000, 3.000000)" stroke="#BF8A49" stroke-width="5">
            <path d="M118.256019,153.037201 C118.256019,166.949674 104.343546,180.862147 104.343546,201.730856 C104.343546,215.643329 111.299783,222.599565 111.299783,222.599565" id="Path-14" stroke-linejoin="round"></path>
            <path d="M118.256019,187.818383 C118.256019,187.818383 117.392999,192.09992 115.807071,199.886842 C114.221142,207.673764 113.681478,208.491788 113.681478,210.279418 C113.681478,215.26372 125.212255,215.643329 125.212255,215.643329" id="Path-15" stroke-linejoin="round"></path>
            <path d="M125.212255,243.468274 C125.212255,243.468274 123.893695,234.530801 126.482584,232.138576 C129.071472,229.746351 132.168492,229.555802 132.168492,229.555802 C132.168492,229.555802 133.456795,224.489782 139.127446,222.599565 C144.798096,220.709348 153.037201,222.599565 153.037201,222.599565" id="Path-17" stroke-linejoin="round"></path>
            <path d="M132.168492,180.862147 C132.168492,180.862147 132.168492,166.949674 146.080965,166.949674 C159.993438,166.949674 173.90591,173.90591 173.90591,173.90591" id="Path-18" stroke-linejoin="round"></path>
            <path d="M118.256019,153.037201 C132.168492,153.037201 139.124728,153.037201 153.037201,153.037201 C192.392924,153.037201 208.687092,187.818383 215.643329,187.818383 C222.599565,187.818383 223.295189,187.818383 228.164554,183.644641 C233.03392,179.470899 233.03392,173.90591 242.077027,173.90591" id="Path-16" stroke-linejoin="round"></path>
            <path d="M146.080965,180.862147 C153.037201,180.862147 166.949674,173.90591 166.949674,173.90591" id="Path-19" stroke-linejoin="round"></path>
            <path d="M243.468274,173.90591 C243.468274,173.90591 194.774624,132.168492 173.90591,125.212255 C153.037197,118.256019 118.256019,132.168492 118.256019,132.168492 C118.256019,132.168492 97.3873096,146.080965 90.4310734,173.90591 C90.4310734,194.77462 83.4748372,215.643329 104.343546,229.555802" id="Path-20" stroke-linejoin="round"></path>
            <path d="M257.380752,159.993438 C257.380752,159.993438 215.375676,90.4310734 159.993437,90.4310734 C104.611198,90.4310734 90.4310734,132.168492 90.4310734,132.168492 C85.0318384,147.725598 90.4310734,173.90591 90.4310734,173.90591" id="Path-21" stroke-linejoin="round"></path>
            <path d="M208.687092,97.3873098 L257.380747,20.8687092 L208.687092,97.3873098 Z" id="Path-22" stroke-linejoin="round"></path>
            <path d="M250.424511,132.168492 L319.986875,83.474837" id="Path-23" stroke-linejoin="round"></path>
            <path d="M160.689061,81.387966 L153.037201,0" id="Path-24" stroke-linejoin="round"></path>
            <path d="M67.8036175,45.4780356 L41.7374185,13.9124728" id="Path-25" stroke-linejoin="round"></path>
            <path d="M109.908535,94.6048152 L74.4186047,52.9198966" id="Path-25" stroke-linejoin="round"></path>
            <path d="M79.9967188,145.385341 L0,118.256019" id="Path-26" stroke-linejoin="round"></path>
            <path d="M130.777245,271.988844 C130.777245,271.988844 125.212256,264.336984 132.168492,257.380747 C139.124728,250.424511 139.124729,250.424511 153.037201,243.468274 C166.949673,236.512038 194.77462,229.555802 194.77462,229.555802 C194.77462,229.555802 201.730857,222.599565 208.687092,215.643329 C215.643328,208.687092 215.643329,201.730856 215.643329,201.730856 L217.034576,212.860834 C217.034576,212.860834 219.81707,217.7302 223.990813,217.7302 C228.164556,217.7302 234.425168,217.7302 241.381404,213.556458 C248.337639,209.382716 253.207007,203.122103 251.815758,191.992125 C250.42451,180.862147 242.772651,173.210287 242.772651,173.210287" id="Path-27" stroke-linejoin="round"></path>
            <path d="M243.468274,153.037201 L236.512038,159.993438" id="Path-28" stroke-linejoin="round"></path>
            <path d="M236.848301,144.858868 L229.555802,153.037201" id="Path-29"></path>
            <path d="M219.59765,145.950535 L228.240638,134.042736" id="Path-30"></path>
            <path d="M208.35015,137.175759 L216.849801,123.374016" id="Path-31"></path>
            <path d="M196.140732,129.549034 L204.63427,113.876443" id="Path-31-Copy"></path>
            <path d="M183.999926,121.853698 L190.225214,105.99769" id="Path-31-Copy-2"></path>
            <path d="M169.036545,117.959156 L174.284971,99.5821926" id="Path-31-Copy-3"></path>
            <path d="M153.037201,97.3873098 L153.037201,118.256019" id="Path-32"></path>
            <path d="M137.959015,98.7513843 L139.565607,119.471322" id="Path-33"></path>
            <path d="M121.376815,106.882844 L125.770656,124.266642" id="Path-34"></path>
            <path d="M107.532953,117.012184 L112.748772,129.682181" id="Path-35"></path>
            <path d="M98.4511249,129.322141 L102.633698,139.041172" id="Path-36"></path>
            <path d="M94.9614582,151.643916 L91.9826402,147.969474" id="Path-37"></path>
            <path d="M237.506562,220.115971 C237.506562,220.115971 234.167025,229.951166 237.143806,242.530813 C240.120586,255.11046 255.598212,287.148548 255.598212,287.148548" id="Path-38"></path>
            <path d="M153.037201,306.770026 L153.732825,290.075058 C153.732825,290.075058 146.760685,287.202314 142.602846,283.814446 C138.445008,280.426577 134.255363,276.162586 134.255363,276.162586" id="Path-39" stroke-linejoin="round"></path>
            <path d="M81.387966,210.773963 L12.5212255,228.860178" id="Path-40"></path>
            <path d="M105.734793,252.511382 L42.4330421,301.205037" id="Path-41"></path>
        </g>
    </g>
</svg>
