<?xml version="1.0" encoding="UTF-8" standalone="no"?>
<svg width="498px" height="210px" viewBox="0 0 498 210" version="1.1" xmlns="http://www.w3.org/2000/svg" xmlns:xlink="http://www.w3.org/1999/xlink">
    <!-- Generator: Sketch 39.1 (31720) - http://www.bohemiancoding.com/sketch -->
    <title>Group</title>
    <desc>Created with Sketch.</desc>
    <defs></defs>
    <g id="Logo" stroke="none" stroke-width="1" fill="none" fill-rule="evenodd">
        <g id="Artboard-Copy-30" transform="translate(-273.000000, -199.000000)">
            <g id="Group" transform="translate(273.000000, 199.000000)">
                <path d="M53.7765583,180.68 C53.7765583,185.053355 53.1232315,188.986649 51.8165583,192.48 C50.5098851,195.973351 48.6699035,198.946654 46.2965583,201.4 C43.9232131,203.853346 41.0832415,205.733327 37.7765583,207.04 C34.4698751,208.346673 30.8032451,209 26.7765583,209 L6.13655828,209 L6.13655828,152.4 L26.7765583,152.4 C30.8032451,152.4 34.4698751,153.053327 37.7765583,154.36 C41.0832415,155.666673 43.9232131,157.546654 46.2965583,160 C48.6699035,162.453346 50.5098851,165.426649 51.8165583,168.92 C53.1232315,172.413351 53.7765583,176.333312 53.7765583,180.68 L53.7765583,180.68 Z M49.5365583,180.68 C49.5365583,176.733314 48.9898971,173.213349 47.8965583,170.12 C46.8032195,167.026651 45.2632349,164.413344 43.2765583,162.28 C41.2898817,160.146656 38.8965723,158.520006 36.0965583,157.4 C33.2965443,156.279994 30.1899087,155.72 26.7765583,155.72 L10.2565583,155.72 L10.2565583,205.68 L26.7765583,205.68 C30.1899087,205.68 33.2965443,205.120006 36.0965583,204 C38.8965723,202.879994 41.2898817,201.253344 43.2765583,199.12 C45.2632349,196.986656 46.8032195,194.373349 47.8965583,191.28 C48.9898971,188.186651 49.5365583,184.653353 49.5365583,180.68 L49.5365583,180.68 Z M108.212879,152.4 L108.212879,155.8 L78.4128787,155.8 L78.4128787,178.68 L103.212879,178.68 L103.212879,182 L78.4128787,182 L78.4128787,205.6 L108.212879,205.6 L108.212879,209 L74.2928787,209 L74.2928787,152.4 L108.212879,152.4 Z M156.289199,159.28 C156.049198,159.733336 155.702535,159.96 155.249199,159.96 C154.902531,159.96 154.455868,159.713336 153.909199,159.22 C153.36253,158.726664 152.622537,158.180003 151.689199,157.58 C150.755861,156.979997 149.589206,156.426669 148.189199,155.92 C146.789192,155.413331 145.062543,155.16 143.009199,155.16 C140.955855,155.16 139.149207,155.45333 137.589199,156.04 C136.029191,156.62667 134.722538,157.426662 133.669199,158.44 C132.61586,159.453338 131.815868,160.62666 131.269199,161.96 C130.72253,163.29334 130.449199,164.693326 130.449199,166.16 C130.449199,168.08001 130.855862,169.66666 131.669199,170.92 C132.482536,172.17334 133.555859,173.239996 134.889199,174.12 C136.222539,175.000004 137.735857,175.739997 139.429199,176.34 C141.122541,176.940003 142.862523,177.53333 144.649199,178.12 C146.435875,178.70667 148.175857,179.35333 149.869199,180.06 C151.562541,180.76667 153.075859,181.653328 154.409199,182.72 C155.742539,183.786672 156.815862,185.099992 157.629199,186.66 C158.442536,188.220008 158.849199,190.159988 158.849199,192.48 C158.849199,194.853345 158.442536,197.086656 157.629199,199.18 C156.815862,201.273344 155.635873,203.093326 154.089199,204.64 C152.542525,206.186674 150.64921,207.406662 148.409199,208.3 C146.169188,209.193338 143.609213,209.64 140.729199,209.64 C136.995847,209.64 133.782546,208.980007 131.089199,207.66 C128.395852,206.339993 126.035876,204.533345 124.009199,202.24 L125.129199,200.48 C125.449201,200.079998 125.82253,199.88 126.249199,199.88 C126.4892,199.88 126.795864,200.039998 127.169199,200.36 C127.542534,200.680002 127.995863,201.073331 128.529199,201.54 C129.062535,202.006669 129.702529,202.513331 130.449199,203.06 C131.195869,203.606669 132.062527,204.113331 133.049199,204.58 C134.035871,205.046669 135.169193,205.439998 136.449199,205.76 C137.729205,206.080002 139.182524,206.24 140.809199,206.24 C143.04921,206.24 145.04919,205.900003 146.809199,205.22 C148.569208,204.539997 150.05586,203.613339 151.269199,202.44 C152.482538,201.266661 153.409196,199.873341 154.049199,198.26 C154.689202,196.646659 155.009199,194.920009 155.009199,193.08 C155.009199,191.07999 154.602536,189.43334 153.789199,188.14 C152.975862,186.84666 151.902539,185.766671 150.569199,184.9 C149.235859,184.033329 147.722541,183.30667 146.029199,182.72 C144.335857,182.13333 142.595875,181.560003 140.809199,181 C139.022523,180.439997 137.282541,179.813337 135.589199,179.12 C133.895857,178.426663 132.382539,177.540005 131.049199,176.46 C129.715859,175.379995 128.642536,174.033341 127.829199,172.42 C127.015862,170.806659 126.609199,168.786679 126.609199,166.36 C126.609199,164.466657 126.969195,162.640009 127.689199,160.88 C128.409203,159.119991 129.462525,157.566673 130.849199,156.22 C132.235873,154.873327 133.949189,153.793337 135.989199,152.98 C138.029209,152.166663 140.355853,151.76 142.969199,151.76 C145.902547,151.76 148.535854,152.226662 150.869199,153.16 C153.202544,154.093338 155.329189,155.51999 157.249199,157.44 L156.289199,159.28 Z M183.685519,209 L179.565519,209 L179.565519,152.4 L183.685519,152.4 L183.685519,209 Z M233.68184,206.32 C235.628516,206.32 237.401832,206.220001 239.00184,206.02 C240.601848,205.819999 242.0885,205.520002 243.46184,205.12 C244.83518,204.719998 246.141834,204.233336 247.38184,203.66 C248.621846,203.086664 249.8685,202.440004 251.12184,201.72 L251.12184,186.48 L240.24184,186.48 C239.948505,186.48 239.701841,186.386668 239.50184,186.2 C239.301839,186.013332 239.20184,185.800001 239.20184,185.56 L239.20184,183.32 L254.84184,183.32 L254.84184,203.44 C253.428499,204.426672 251.961847,205.306663 250.44184,206.08 C248.921832,206.853337 247.295182,207.499997 245.56184,208.02 C243.828498,208.540003 241.96185,208.939999 239.96184,209.22 C237.96183,209.500001 235.775185,209.64 233.40184,209.64 C229.321819,209.64 225.59519,208.95334 222.22184,207.58 C218.84849,206.20666 215.955185,204.260013 213.54184,201.74 C211.128494,199.219987 209.25518,196.173351 207.92184,192.6 C206.5885,189.026649 205.92184,185.053355 205.92184,180.68 C205.92184,176.306645 206.5885,172.340018 207.92184,168.78 C209.25518,165.219982 211.148494,162.180013 213.60184,159.66 C216.055185,157.139987 219.035156,155.19334 222.54184,153.82 C226.048524,152.44666 229.975151,151.76 234.32184,151.76 C236.481851,151.76 238.475164,151.906665 240.30184,152.2 C242.128516,152.493335 243.828499,152.926664 245.40184,153.5 C246.975181,154.073336 248.441833,154.779996 249.80184,155.62 C251.161847,156.460004 252.4685,157.426661 253.72184,158.52 L252.64184,160.28 C252.401839,160.680002 252.068509,160.88 251.64184,160.88 C251.401839,160.88 251.175174,160.826667 250.96184,160.72 C250.561838,160.559999 249.981844,160.18667 249.22184,159.6 C248.461836,159.01333 247.43518,158.400003 246.14184,157.76 C244.8485,157.119997 243.228516,156.546669 241.28184,156.04 C239.335163,155.533331 236.975187,155.28 234.20184,155.28 C230.521821,155.28 227.201855,155.866661 224.24184,157.04 C221.281825,158.213339 218.755184,159.893322 216.66184,162.08 C214.568496,164.266678 212.955179,166.933318 211.82184,170.08 C210.688501,173.226682 210.12184,176.75998 210.12184,180.68 C210.12184,184.68002 210.695167,188.266651 211.84184,191.44 C212.988512,194.613349 214.595163,197.299989 216.66184,199.5 C218.728517,201.700011 221.208492,203.386661 224.10184,204.56 C226.995188,205.733339 230.188489,206.32 233.68184,206.32 L233.68184,206.32 Z M278.59816,152.4 C278.971495,152.4 279.264826,152.446666 279.47816,152.54 C279.691495,152.633334 279.918159,152.839998 280.15816,153.16 L316.79816,202.2 C316.71816,201.399996 316.67816,200.62667 316.67816,199.88 L316.67816,152.4 L320.27816,152.4 L320.27816,209 L318.31816,209 C317.704824,209 317.211495,208.733336 316.83816,208.2 L280.03816,159.08 C280.118161,159.880004 280.15816,160.639996 280.15816,161.36 L280.15816,209 L276.59816,209 L276.59816,152.4 L278.59816,152.4 Z M408.350801,199.48 C408.617469,199.48 408.844133,199.573332 409.030801,199.76 L410.630801,201.48 C409.457462,202.73334 408.177475,203.859995 406.790801,204.86 C405.404127,205.860005 403.890809,206.71333 402.250801,207.42 C400.610793,208.12667 398.810811,208.673331 396.850801,209.06 C394.890791,209.446669 392.737479,209.64 390.390801,209.64 C386.470781,209.64 382.877484,208.95334 379.610801,207.58 C376.344118,206.20666 373.544146,204.260013 371.210801,201.74 C368.877456,199.219987 367.057474,196.173351 365.750801,192.6 C364.444128,189.026649 363.790801,185.053355 363.790801,180.68 C363.790801,176.386645 364.464128,172.466684 365.810801,168.92 C367.157474,165.373316 369.050789,162.326679 371.490801,159.78 C373.930813,157.233321 376.850784,155.260007 380.250801,153.86 C383.650818,152.459993 387.404114,151.76 391.510801,151.76 C393.564145,151.76 395.444126,151.913332 397.150801,152.22 C398.857476,152.526668 400.450794,152.966664 401.930801,153.54 C403.410808,154.113336 404.804128,154.826662 406.110801,155.68 C407.417474,156.533338 408.697461,157.519994 409.950801,158.64 L408.710801,160.44 C408.497467,160.760002 408.164137,160.92 407.710801,160.92 C407.4708,160.92 407.164136,160.780001 406.790801,160.5 C406.417466,160.219999 405.944137,159.873335 405.370801,159.46 C404.797465,159.046665 404.104138,158.593336 403.290801,158.1 C402.477464,157.606664 401.510807,157.153335 400.390801,156.74 C399.270795,156.326665 397.977475,155.980001 396.510801,155.7 C395.044127,155.419999 393.377477,155.28 391.510801,155.28 C388.070784,155.28 384.910815,155.873327 382.030801,157.06 C379.150787,158.246673 376.670811,159.939989 374.590801,162.14 C372.510791,164.340011 370.890807,167.006651 369.730801,170.14 C368.570795,173.273349 367.990801,176.786647 367.990801,180.68 C367.990801,184.68002 368.564129,188.253318 369.710801,191.4 C370.857473,194.546682 372.444124,197.206656 374.470801,199.38 C376.497478,201.553344 378.890787,203.219994 381.650801,204.38 C384.410815,205.540006 387.404118,206.12 390.630801,206.12 C392.657478,206.12 394.464126,205.986668 396.050801,205.72 C397.637476,205.453332 399.097461,205.053336 400.430801,204.52 C401.764141,203.986664 403.004129,203.333337 404.150801,202.56 C405.297473,201.786663 406.430795,200.880005 407.550801,199.84 C407.684135,199.733333 407.8108,199.646667 407.930801,199.58 C408.050802,199.513333 408.1908,199.48 408.350801,199.48 L408.350801,199.48 Z M481.347121,180.68 C481.347121,185.053355 480.693795,189.019982 479.387121,192.58 C478.080448,196.140018 476.240467,199.179987 473.867121,201.7 C471.493776,204.220013 468.653805,206.16666 465.347121,207.54 C462.040438,208.91334 458.373808,209.6 454.347121,209.6 C450.373768,209.6 446.733805,208.91334 443.427121,207.54 C440.120438,206.16666 437.280467,204.220013 434.907121,201.7 C432.533776,199.179987 430.687128,196.140018 429.367121,192.58 C428.047115,189.019982 427.387121,185.053355 427.387121,180.68 C427.387121,176.333312 428.047115,172.380018 429.367121,168.82 C430.687128,165.259982 432.533776,162.220013 434.907121,159.7 C437.280467,157.179987 440.120438,155.226674 443.427121,153.84 C446.733805,152.453326 450.373768,151.76 454.347121,151.76 C458.373808,151.76 462.040438,152.44666 465.347121,153.82 C468.653805,155.19334 471.493776,157.146654 473.867121,159.68 C476.240467,162.213346 478.080448,165.259982 479.387121,168.82 C480.693795,172.380018 481.347121,176.333312 481.347121,180.68 L481.347121,180.68 Z M477.107121,180.68 C477.107121,176.733314 476.56046,173.186682 475.467121,170.04 C474.373783,166.893318 472.833798,164.226678 470.847121,162.04 C468.860445,159.853322 466.467135,158.180006 463.667121,157.02 C460.867107,155.859994 457.760472,155.28 454.347121,155.28 C450.987105,155.28 447.913802,155.859994 445.127121,157.02 C442.340441,158.180006 439.940465,159.853322 437.927121,162.04 C435.913778,164.226678 434.353794,166.893318 433.247121,170.04 C432.140449,173.186682 431.587121,176.733314 431.587121,180.68 C431.587121,184.653353 432.140449,188.206651 433.247121,191.34 C434.353794,194.473349 435.913778,197.133322 437.927121,199.32 C439.940465,201.506678 442.340441,203.173328 445.127121,204.32 C447.913802,205.466672 450.987105,206.04 454.347121,206.04 C457.760472,206.04 460.867107,205.466672 463.667121,204.32 C466.467135,203.173328 468.860445,201.506678 470.847121,199.32 C472.833798,197.133322 474.373783,194.473349 475.467121,191.34 C476.56046,188.206651 477.107121,184.653353 477.107121,180.68 L477.107121,180.68 Z M490.307121,205.92 C490.307121,205.413331 490.400454,204.933336 490.587121,204.48 C490.773789,204.026664 491.033786,203.633335 491.367121,203.3 C491.700456,202.966665 492.087119,202.700001 492.527121,202.5 C492.967124,202.299999 493.453785,202.2 493.987121,202.2 C494.493791,202.2 494.973786,202.299999 495.427121,202.5 C495.880457,202.700001 496.273786,202.966665 496.607121,203.3 C496.940456,203.633335 497.20712,204.026664 497.407121,204.48 C497.607122,204.933336 497.707121,205.413331 497.707121,205.92 C497.707121,206.453336 497.607122,206.939998 497.407121,207.38 C497.20712,207.820002 496.940456,208.206665 496.607121,208.54 C496.273786,208.873335 495.880457,209.133332 495.427121,209.32 C494.973786,209.506668 494.493791,209.6 493.987121,209.6 C492.947116,209.6 492.073792,209.24667 491.367121,208.54 C490.660451,207.83333 490.307121,206.960005 490.307121,205.92 L490.307121,205.92 Z" id="DESIGN-CO." fill="#BF8A49"></path>
                <path d="M55.1438186,8.968 C68.2158186,8.968 77.3358186,21.888 85.6958186,40.584 L88.4318186,40.584 L87.2158186,7.6 L85.5438186,7.6 C84.4798186,9.576 83.8718186,10.64 81.4398186,10.64 C76.1198186,10.64 68.8238186,5.928 53.0158186,5.928 C21.8558186,5.928 0.575818637,25.384 0.575818637,62.168 C0.575818637,98.496 20.3358186,115.52 52.5598186,115.52 C69.2798186,115.52 77.6398186,110.808 82.8078186,110.808 C85.2398186,110.808 85.8478186,111.872 86.9118186,113.848 L88.5838186,113.848 L89.6478186,79.952 L86.9118186,79.952 C78.3998186,99.712 68.5198186,112.48 56.2078186,112.48 C39.6398186,112.48 31.5838186,94.392 31.5838186,66.424 L31.5838186,54.416 C31.5838186,22.952 39.7918186,8.968 55.1438186,8.968 L55.1438186,8.968 Z M101.005819,0 L101.005819,2.736 L109.973819,2.736 L109.973819,111.264 L101.613819,111.264 L101.613819,114 L146.757819,114 L146.757819,111.264 L138.245819,111.264 L138.245819,0 L101.005819,0 Z M188.196691,78.28 C166.460691,78.28 153.236691,81.776 153.236691,97.128 C153.236691,112.328 165.092691,115.52 175.732691,115.52 C186.372691,115.52 190.780691,111.568 193.212691,104.272 C195.036691,111.72 201.876691,115.52 214.188691,115.52 C227.260691,115.52 232.884691,110.352 233.644691,92.112 L231.364691,91.96 C230.604691,104.728 228.020691,107.616 225.284691,107.616 C222.700691,107.616 220.876691,105.944 220.876691,99.712 L220.876691,68.856 C220.876691,46.816 212.820691,40.128 188.956691,40.128 C168.284691,40.128 157.188691,46.056 157.188691,58.824 C157.188691,66.272 160.836691,71.44 170.260691,71.44 C177.860691,71.44 183.636691,66.728 183.636691,59.584 C183.636691,56.696 183.180691,54.72 182.420691,52.744 L178.620691,52.744 C178.012691,51.072 177.708691,49.552 177.708691,48.336 C177.708691,43.472 182.116691,42.256 184.852691,42.256 C190.932691,42.256 192.604691,47.272 192.604691,66.576 L192.604691,78.28 L188.196691,78.28 Z M186.068691,109.44 C183.180691,109.44 182.116691,107.92 182.116691,96.976 L182.116691,94.544 C182.116691,85.272 185.156691,80.712 191.540691,80.712 L192.604691,80.712 L192.604691,94.848 C192.604691,104.576 188.956691,109.44 186.068691,109.44 L186.068691,109.44 Z M286.939564,69.16 L271.891564,44.384 L282.531564,44.384 L282.531564,41.648 L231.155564,41.648 L231.155564,44.384 L239.971564,44.384 L263.075564,80.864 L243.771564,111.264 L233.739564,111.264 L233.739564,114 L257.603564,114 L257.603564,111.264 L247.571564,111.264 L264.899564,83.904 L281.619564,111.264 L270.827564,111.264 L270.827564,114 L321.595564,114 L321.595564,111.264 L313.691564,111.264 L288.915564,72.352 L308.675564,44.384 L316.579564,44.384 L316.579564,41.648 L293.931564,41.648 L293.931564,44.384 L304.875564,44.384 L286.939564,69.16 Z M368.962436,84.056 C368.962436,103.816 368.506436,112.784 359.842436,112.784 C350.570436,112.784 350.266436,101.384 350.266436,83.752 L350.266436,71.896 C350.266436,54.72 350.722436,42.864 359.994436,42.864 C368.506436,42.864 368.962436,54.72 368.962436,71.136 L368.962436,84.056 Z M321.082436,78.128 C321.082436,101.84 334.002436,115.52 359.538436,115.52 C386.594436,115.52 398.146436,101.688 398.146436,76.76 C398.146436,52.136 385.986436,40.128 360.450436,40.128 C335.978436,40.128 321.082436,53.2 321.082436,78.128 L321.082436,78.128 Z M404.777309,41.648 L404.777309,44.384 L413.137309,44.384 L413.137309,111.264 L404.777309,111.264 L404.777309,114 L447.945309,114 L447.945309,111.264 L441.409309,111.264 L441.409309,69.312 C441.409309,57 447.337309,47.424 453.721309,47.424 C457.521309,47.424 459.345309,48.944 459.345309,61.864 L459.345309,111.264 L453.113309,111.264 L453.113309,114 L496.129309,114 L496.129309,111.264 L487.617309,111.264 L487.617309,65.512 C487.617309,47.12 478.193309,40.128 464.057309,40.128 C449.009309,40.128 443.993309,48.032 441.409309,55.632 L441.409309,41.648 L404.777309,41.648 Z" id="Claxon" fill="#FFFFFF"></path>
            </g>
        </g>
    </g>
</svg>