<svg xmlns="http://www.w3.org/2000/svg" width="498" height="210" viewBox="0 0 498 210"><title>  Group</title><desc>  Created with Sketch.</desc><g fill="none"><path d="M53.8 180.7C53.8 185.1 53.1 189 51.8 192.5 50.5 196 48.7 198.9 46.3 201.4 43.9 203.9 41.1 205.7 37.8 207 34.5 208.3 30.8 209 26.8 209L6.1 209 6.1 152.4 26.8 152.4C30.8 152.4 34.5 153.1 37.8 154.4 41.1 155.7 43.9 157.5 46.3 160 48.7 162.5 50.5 165.4 51.8 168.9 53.1 172.4 53.8 176.3 53.8 180.7L53.8 180.7ZM49.5 180.7C49.5 176.7 49 173.2 47.9 170.1 46.8 167 45.3 164.4 43.3 162.3 41.3 160.1 38.9 158.5 36.1 157.4 33.3 156.3 30.2 155.7 26.8 155.7L10.3 155.7 10.3 205.7 26.8 205.7C30.2 205.7 33.3 205.1 36.1 204 38.9 202.9 41.3 201.3 43.3 199.1 45.3 197 46.8 194.4 47.9 191.3 49 188.2 49.5 184.7 49.5 180.7L49.5 180.7ZM108.2 152.4L108.2 155.8 78.4 155.8 78.4 178.7 103.2 178.7 103.2 182 78.4 182 78.4 205.6 108.2 205.6 108.2 209 74.3 209 74.3 152.4 108.2 152.4ZM156.3 159.3C156 159.7 155.7 160 155.2 160 154.9 160 154.5 159.7 153.9 159.2 153.4 158.7 152.6 158.2 151.7 157.6 150.8 157 149.6 156.4 148.2 155.9 146.8 155.4 145.1 155.2 143 155.2 141 155.2 139.1 155.5 137.6 156 136 156.6 134.7 157.4 133.7 158.4 132.6 159.5 131.8 160.6 131.3 162 130.7 163.3 130.4 164.7 130.4 166.2 130.4 168.1 130.9 169.7 131.7 170.9 132.5 172.2 133.6 173.2 134.9 174.1 136.2 175 137.7 175.7 139.4 176.3 141.1 176.9 142.9 177.5 144.6 178.1 146.4 178.7 148.2 179.4 149.9 180.1 151.6 180.8 153.1 181.7 154.4 182.7 155.7 183.8 156.8 185.1 157.6 186.7 158.4 188.2 158.8 190.2 158.8 192.5 158.8 194.9 158.4 197.1 157.6 199.2 156.8 201.3 155.6 203.1 154.1 204.6 152.5 206.2 150.6 207.4 148.4 208.3 146.2 209.2 143.6 209.6 140.7 209.6 137 209.6 133.8 209 131.1 207.7 128.4 206.3 126 204.5 124 202.2L125.1 200.5C125.4 200.1 125.8 199.9 126.2 199.9 126.5 199.9 126.8 200 127.2 200.4 127.5 200.7 128 201.1 128.5 201.5 129.1 202 129.7 202.5 130.4 203.1 131.2 203.6 132.1 204.1 133 204.6 134 205 135.2 205.4 136.4 205.8 137.7 206.1 139.2 206.2 140.8 206.2 143 206.2 145 205.9 146.8 205.2 148.6 204.5 150.1 203.6 151.3 202.4 152.5 201.3 153.4 199.9 154 198.3 154.7 196.6 155 194.9 155 193.1 155 191.1 154.6 189.4 153.8 188.1 153 186.8 151.9 185.8 150.6 184.9 149.2 184 147.7 183.3 146 182.7 144.3 182.1 142.6 181.6 140.8 181 139 180.4 137.3 179.8 135.6 179.1 133.9 178.4 132.4 177.5 131 176.5 129.7 175.4 128.6 174 127.8 172.4 127 170.8 126.6 168.8 126.6 166.4 126.6 164.5 127 162.6 127.7 160.9 128.4 159.1 129.5 157.6 130.8 156.2 132.2 154.9 133.9 153.8 136 153 138 152.2 140.4 151.8 143 151.8 145.9 151.8 148.5 152.2 150.9 153.2 153.2 154.1 155.3 155.5 157.2 157.4L156.3 159.3ZM183.7 209L179.6 209 179.6 152.4 183.7 152.4 183.7 209ZM233.7 206.3C235.6 206.3 237.4 206.2 239 206 240.6 205.8 242.1 205.5 243.5 205.1 244.8 204.7 246.1 204.2 247.4 203.7 248.6 203.1 249.9 202.4 251.1 201.7L251.1 186.5 240.2 186.5C239.9 186.5 239.7 186.4 239.5 186.2 239.3 186 239.2 185.8 239.2 185.6L239.2 183.3 254.8 183.3 254.8 203.4C253.4 204.4 252 205.3 250.4 206.1 248.9 206.9 247.3 207.5 245.6 208 243.8 208.5 242 208.9 240 209.2 238 209.5 235.8 209.6 233.4 209.6 229.3 209.6 225.6 209 222.2 207.6 218.8 206.2 216 204.3 213.5 201.7 211.1 199.2 209.3 196.2 207.9 192.6 206.6 189 205.9 185.1 205.9 180.7 205.9 176.3 206.6 172.3 207.9 168.8 209.3 165.2 211.1 162.2 213.6 159.7 216.1 157.1 219 155.2 222.5 153.8 226 152.4 230 151.8 234.3 151.8 236.5 151.8 238.5 151.9 240.3 152.2 242.1 152.5 243.8 152.9 245.4 153.5 247 154.1 248.4 154.8 249.8 155.6 251.2 156.5 252.5 157.4 253.7 158.5L252.6 160.3C252.4 160.7 252.1 160.9 251.6 160.9 251.4 160.9 251.2 160.8 251 160.7 250.6 160.6 250 160.2 249.2 159.6 248.5 159 247.4 158.4 246.1 157.8 244.8 157.1 243.2 156.5 241.3 156 239.3 155.5 237 155.3 234.2 155.3 230.5 155.3 227.2 155.9 224.2 157 221.3 158.2 218.8 159.9 216.7 162.1 214.6 164.3 213 166.9 211.8 170.1 210.7 173.2 210.1 176.8 210.1 180.7 210.1 184.7 210.7 188.3 211.8 191.4 213 194.6 214.6 197.3 216.7 199.5 218.7 201.7 221.2 203.4 224.1 204.6 227 205.7 230.2 206.3 233.7 206.3L233.7 206.3ZM278.6 152.4C279 152.4 279.3 152.4 279.5 152.5 279.7 152.6 279.9 152.8 280.2 153.2L316.8 202.2C316.7 201.4 316.7 200.6 316.7 199.9L316.7 152.4 320.3 152.4 320.3 209 318.3 209C317.7 209 317.2 208.7 316.8 208.2L280 159.1C280.1 159.9 280.2 160.6 280.2 161.4L280.2 209 276.6 209 276.6 152.4 278.6 152.4ZM408.4 199.5C408.6 199.5 408.8 199.6 409 199.8L410.6 201.5C409.5 202.7 408.2 203.9 406.8 204.9 405.4 205.9 403.9 206.7 402.3 207.4 400.6 208.1 398.8 208.7 396.9 209.1 394.9 209.4 392.7 209.6 390.4 209.6 386.5 209.6 382.9 209 379.6 207.6 376.3 206.2 373.5 204.3 371.2 201.7 368.9 199.2 367.1 196.2 365.8 192.6 364.4 189 363.8 185.1 363.8 180.7 363.8 176.4 364.5 172.5 365.8 168.9 367.2 165.4 369.1 162.3 371.5 159.8 373.9 157.2 376.9 155.3 380.3 153.9 383.7 152.5 387.4 151.8 391.5 151.8 393.6 151.8 395.4 151.9 397.2 152.2 398.9 152.5 400.5 153 401.9 153.5 403.4 154.1 404.8 154.8 406.1 155.7 407.4 156.5 408.7 157.5 410 158.6L408.7 160.4C408.5 160.8 408.2 160.9 407.7 160.9 407.5 160.9 407.2 160.8 406.8 160.5 406.4 160.2 405.9 159.9 405.4 159.5 404.8 159 404.1 158.6 403.3 158.1 402.5 157.6 401.5 157.2 400.4 156.7 399.3 156.3 398 156 396.5 155.7 395 155.4 393.4 155.3 391.5 155.3 388.1 155.3 384.9 155.9 382 157.1 379.2 158.2 376.7 159.9 374.6 162.1 372.5 164.3 370.9 167 369.7 170.1 368.6 173.3 368 176.8 368 180.7 368 184.7 368.6 188.3 369.7 191.4 370.9 194.5 372.4 197.2 374.5 199.4 376.5 201.6 378.9 203.2 381.7 204.4 384.4 205.5 387.4 206.1 390.6 206.1 392.7 206.1 394.5 206 396.1 205.7 397.6 205.5 399.1 205.1 400.4 204.5 401.8 204 403 203.3 404.2 202.6 405.3 201.8 406.4 200.9 407.6 199.8 407.7 199.7 407.8 199.6 407.9 199.6 408.1 199.5 408.2 199.5 408.4 199.5L408.4 199.5ZM481.3 180.7C481.3 185.1 480.7 189 479.4 192.6 478.1 196.1 476.2 199.2 473.9 201.7 471.5 204.2 468.7 206.2 465.3 207.5 462 208.9 458.4 209.6 454.3 209.6 450.4 209.6 446.7 208.9 443.4 207.5 440.1 206.2 437.3 204.2 434.9 201.7 432.5 199.2 430.7 196.1 429.4 192.6 428 189 427.4 185.1 427.4 180.7 427.4 176.3 428 172.4 429.4 168.8 430.7 165.3 432.5 162.2 434.9 159.7 437.3 157.2 440.1 155.2 443.4 153.8 446.7 152.5 450.4 151.8 454.3 151.8 458.4 151.8 462 152.4 465.3 153.8 468.7 155.2 471.5 157.1 473.9 159.7 476.2 162.2 478.1 165.3 479.4 168.8 480.7 172.4 481.3 176.3 481.3 180.7L481.3 180.7ZM477.1 180.7C477.1 176.7 476.6 173.2 475.5 170 474.4 166.9 472.8 164.2 470.8 162 468.9 159.9 466.5 158.2 463.7 157 460.9 155.9 457.8 155.3 454.3 155.3 451 155.3 447.9 155.9 445.1 157 442.3 158.2 439.9 159.9 437.9 162 435.9 164.2 434.4 166.9 433.2 170 432.1 173.2 431.6 176.7 431.6 180.7 431.6 184.7 432.1 188.2 433.2 191.3 434.4 194.5 435.9 197.1 437.9 199.3 439.9 201.5 442.3 203.2 445.1 204.3 447.9 205.5 451 206 454.3 206 457.8 206 460.9 205.5 463.7 204.3 466.5 203.2 468.9 201.5 470.8 199.3 472.8 197.1 474.4 194.5 475.5 191.3 476.6 188.2 477.1 184.7 477.1 180.7L477.1 180.7ZM490.3 205.9C490.3 205.4 490.4 204.9 490.6 204.5 490.8 204 491 203.6 491.4 203.3 491.7 203 492.1 202.7 492.5 202.5 493 202.3 493.5 202.2 494 202.2 494.5 202.2 495 202.3 495.4 202.5 495.9 202.7 496.3 203 496.6 203.3 496.9 203.6 497.2 204 497.4 204.5 497.6 204.9 497.7 205.4 497.7 205.9 497.7 206.5 497.6 206.9 497.4 207.4 497.2 207.8 496.9 208.2 496.6 208.5 496.3 208.9 495.9 209.1 495.4 209.3 495 209.5 494.5 209.6 494 209.6 492.9 209.6 492.1 209.2 491.4 208.5 490.7 207.8 490.3 207 490.3 205.9L490.3 205.9Z" fill="#BF8A49"/><path d="M55.1 9C68.2 9 77.3 21.9 85.7 40.6L88.4 40.6 87.2 7.6 85.5 7.6C84.5 9.6 83.9 10.6 81.4 10.6 76.1 10.6 68.8 5.9 53 5.9 21.9 5.9 0.6 25.4 0.6 62.2 0.6 98.5 20.3 115.5 52.6 115.5 69.3 115.5 77.6 110.8 82.8 110.8 85.2 110.8 85.8 111.9 86.9 113.8L88.6 113.8 89.6 80 86.9 80C78.4 99.7 68.5 112.5 56.2 112.5 39.6 112.5 31.6 94.4 31.6 66.4L31.6 54.4C31.6 23 39.8 9 55.1 9L55.1 9ZM101 0L101 2.7 110 2.7 110 111.3 101.6 111.3 101.6 114 146.8 114 146.8 111.3 138.2 111.3 138.2 0 101 0ZM188.2 78.3C166.5 78.3 153.2 81.8 153.2 97.1 153.2 112.3 165.1 115.5 175.7 115.5 186.4 115.5 190.8 111.6 193.2 104.3 195 111.7 201.9 115.5 214.2 115.5 227.3 115.5 232.9 110.4 233.6 92.1L231.4 92C230.6 104.7 228 107.6 225.3 107.6 222.7 107.6 220.9 105.9 220.9 99.7L220.9 68.9C220.9 46.8 212.8 40.1 189 40.1 168.3 40.1 157.2 46.1 157.2 58.8 157.2 66.3 160.8 71.4 170.3 71.4 177.9 71.4 183.6 66.7 183.6 59.6 183.6 56.7 183.2 54.7 182.4 52.7L178.6 52.7C178 51.1 177.7 49.6 177.7 48.3 177.7 43.5 182.1 42.3 184.9 42.3 190.9 42.3 192.6 47.3 192.6 66.6L192.6 78.3 188.2 78.3ZM186.1 109.4C183.2 109.4 182.1 107.9 182.1 97L182.1 94.5C182.1 85.3 185.2 80.7 191.5 80.7L192.6 80.7 192.6 94.8C192.6 104.6 189 109.4 186.1 109.4L186.1 109.4ZM286.9 69.2L271.9 44.4 282.5 44.4 282.5 41.6 231.2 41.6 231.2 44.4 240 44.4 263.1 80.9 243.8 111.3 233.7 111.3 233.7 114 257.6 114 257.6 111.3 247.6 111.3 264.9 83.9 281.6 111.3 270.8 111.3 270.8 114 321.6 114 321.6 111.3 313.7 111.3 288.9 72.4 308.7 44.4 316.6 44.4 316.6 41.6 293.9 41.6 293.9 44.4 304.9 44.4 286.9 69.2ZM369 84.1C369 103.8 368.5 112.8 359.8 112.8 350.6 112.8 350.3 101.4 350.3 83.8L350.3 71.9C350.3 54.7 350.7 42.9 360 42.9 368.5 42.9 369 54.7 369 71.1L369 84.1ZM321.1 78.1C321.1 101.8 334 115.5 359.5 115.5 386.6 115.5 398.1 101.7 398.1 76.8 398.1 52.1 386 40.1 360.5 40.1 336 40.1 321.1 53.2 321.1 78.1L321.1 78.1ZM404.8 41.6L404.8 44.4 413.1 44.4 413.1 111.3 404.8 111.3 404.8 114 447.9 114 447.9 111.3 441.4 111.3 441.4 69.3C441.4 57 447.3 47.4 453.7 47.4 457.5 47.4 459.3 48.9 459.3 61.9L459.3 111.3 453.1 111.3 453.1 114 496.1 114 496.1 111.3 487.6 111.3 487.6 65.5C487.6 47.1 478.2 40.1 464.1 40.1 449 40.1 444 48 441.4 55.6L441.4 41.6 404.8 41.6Z" fill="#FFF"/></g></svg>