<?xml version="1.0" encoding="UTF-8"?>
<svg width="150px" height="45px" viewBox="0 0 150 45" version="1.1" xmlns="http://www.w3.org/2000/svg" xmlns:xlink="http://www.w3.org/1999/xlink">
    <!-- Generator: Sketch 46.2 (44496) - http://www.bohemiancoding.com/sketch -->
    <title>squarespace-light-outline</title>
    <desc>Created with Sketch.</desc>
    <defs></defs>
    <g id="Page-1" stroke="none" stroke-width="1" fill="none" fill-rule="evenodd">
        <path d="M30.49,21.704 C30.051,21.265 29.338,21.265 28.898,21.704 L21.736,28.867 C20.857,29.746 19.431,29.746 18.552,28.867 C18.113,28.427 17.401,28.427 16.961,28.867 C16.521,29.306 16.521,30.019 16.961,30.458 C18.719,32.217 21.569,32.217 23.328,30.458 L30.49,23.296 C30.93,22.856 30.93,22.144 30.49,21.704 Z M26.511,19.317 L19.348,26.479 C18.909,26.919 18.909,27.632 19.348,28.071 C19.788,28.51 20.501,28.51 20.94,28.071 L28.103,20.909 C28.982,20.029 30.407,20.029 31.286,20.909 C32.165,21.787 32.165,23.213 31.286,24.092 L24.261,31.117 C25.14,31.996 26.565,31.996 27.445,31.117 L32.878,25.683 C34.636,23.925 34.636,21.075 32.878,19.317 C31.12,17.559 28.269,17.559 26.511,19.317 Z M25.715,18.521 C26.154,18.081 26.154,17.369 25.715,16.929 C25.276,16.49 24.563,16.49 24.124,16.929 L16.961,24.092 C16.082,24.971 14.657,24.971 13.778,24.092 C12.898,23.213 12.898,21.787 13.778,20.908 L20.802,13.883 C19.924,13.004 18.498,13.004 17.619,13.883 L12.186,19.317 C10.428,21.075 10.428,23.925 12.186,25.683 C13.944,27.442 16.794,27.442 18.552,25.683 L25.715,18.521 Z M14.573,23.296 C15.013,23.735 15.725,23.735 16.165,23.296 L23.328,16.133 C24.207,15.254 25.632,15.254 26.511,16.133 C26.951,16.573 27.663,16.573 28.103,16.133 C28.542,15.694 28.542,14.981 28.103,14.542 C26.344,12.783 23.494,12.783 21.736,14.542 L14.573,21.704 C14.134,22.144 14.134,22.856 14.573,23.296 Z M133.117,26.726 L134.244,26.726 L134.244,28.345 C134.7,27.301 135.587,26.558 136.787,26.617 L136.787,27.805 L136.714,27.805 C135.323,27.805 134.244,28.776 134.244,30.659 L134.244,33.214 L133.117,33.214 L133.117,26.726 Z M130.138,29.58 C130.042,28.465 129.395,27.529 128.207,27.529 C127.127,27.529 126.348,28.393 126.216,29.58 L130.138,29.58 Z M125.089,29.987 L125.089,29.964 C125.089,28.093 126.408,26.581 128.219,26.581 C130.186,26.581 131.277,28.141 131.277,30.035 C131.277,30.155 131.265,30.252 131.253,30.384 L126.228,30.384 C126.372,31.679 127.295,32.41 128.375,32.41 C129.227,32.41 129.814,32.074 130.342,31.535 L131.025,32.146 C130.39,32.878 129.574,33.357 128.351,33.357 C126.552,33.357 125.089,32.003 125.089,29.987 Z M122.398,29.987 L122.398,29.964 C122.398,28.513 121.402,27.577 120.239,27.577 C119.1,27.577 118.032,28.536 118.032,29.952 L118.032,29.976 C118.032,31.403 119.1,32.362 120.239,32.362 C121.426,32.362 122.398,31.463 122.398,29.987 Z M118.068,32.038 L118.068,33.214 L116.941,33.214 L116.941,24.111 L118.068,24.111 L118.068,27.961 C118.584,27.205 119.328,26.581 120.479,26.581 C122.014,26.581 123.549,27.816 123.549,29.952 L123.549,29.976 C123.549,32.11 122.026,33.357 120.479,33.357 C119.303,33.357 118.56,32.734 118.068,32.038 Z M104.857,26.726 L105.984,26.726 L105.984,27.781 C106.404,27.157 106.979,26.581 108.047,26.581 C109.066,26.581 109.738,27.121 110.086,27.829 C110.565,27.133 111.261,26.581 112.341,26.581 C113.816,26.581 114.715,27.553 114.715,29.16 L114.715,33.214 L113.588,33.214 L113.588,29.46 C113.588,28.272 113,27.613 112.017,27.613 C111.082,27.613 110.35,28.284 110.35,29.496 L110.35,33.214 L109.222,33.214 L109.222,29.435 C109.222,28.284 108.635,27.613 107.663,27.613 C106.704,27.613 105.984,28.393 105.984,29.519 L105.984,33.214 L104.857,33.214 L104.857,26.726 Z M101.878,29.58 C101.782,28.465 101.135,27.529 99.947,27.529 C98.868,27.529 98.088,28.393 97.956,29.58 L101.878,29.58 Z M96.829,29.987 L96.829,29.964 C96.829,28.093 98.148,26.581 99.959,26.581 C101.926,26.581 103.018,28.141 103.018,30.035 C103.018,30.155 103.005,30.252 102.994,30.384 L97.968,30.384 C98.112,31.679 99.036,32.41 100.115,32.41 C100.967,32.41 101.554,32.074 102.082,31.535 L102.766,32.146 C102.13,32.878 101.314,33.357 100.091,33.357 C98.292,33.357 96.829,32.003 96.829,29.987 Z M86.329,24.482 L87.516,24.482 L90.539,29.052 L93.561,24.482 L94.76,24.482 L94.76,33.214 L93.609,33.214 L93.609,26.378 L90.551,30.887 L90.502,30.887 L87.456,26.401 L87.456,33.214 L86.329,33.214 L86.329,24.482 Z M79.222,29.58 C79.127,28.465 78.479,27.529 77.291,27.529 C76.212,27.529 75.433,28.393 75.301,29.58 L79.222,29.58 Z M74.173,29.987 L74.173,29.964 C74.173,28.093 75.492,26.581 77.303,26.581 C79.27,26.581 80.362,28.141 80.362,30.035 C80.362,30.155 80.35,30.252 80.338,30.384 L75.312,30.384 C75.456,31.679 76.38,32.41 77.46,32.41 C78.311,32.41 78.898,32.074 79.426,31.535 L80.11,32.146 C79.474,32.878 78.659,33.357 77.436,33.357 C75.636,33.357 74.173,32.003 74.173,29.987 Z M71.065,33.214 L72.18,33.214 L72.18,24.111 L71.065,24.111 L71.065,33.214 Z M63.242,30 L63.242,29.976 C63.242,28.141 64.669,26.581 66.588,26.581 C67.811,26.581 68.566,27.085 69.178,27.732 L68.458,28.5 C67.955,27.984 67.415,27.577 66.576,27.577 C65.328,27.577 64.381,28.644 64.381,29.952 L64.381,29.976 C64.381,31.307 65.34,32.362 66.636,32.362 C67.427,32.362 68.015,31.978 68.531,31.451 L69.226,32.122 C68.579,32.842 67.811,33.357 66.576,33.357 C64.669,33.357 63.242,31.835 63.242,30 Z M58.597,26.726 L59.725,26.726 L59.725,28.345 C60.18,27.301 61.067,26.558 62.267,26.617 L62.267,27.805 L62.195,27.805 C60.804,27.805 59.725,28.776 59.725,30.659 L59.725,33.214 L58.597,33.214 L58.597,26.726 Z M55.105,33.214 L56.22,33.214 L56.22,26.726 L55.105,26.726 L55.105,33.214 Z M55.033,25.43 L56.292,25.43 L56.292,24.255 L55.033,24.255 L55.033,25.43 Z M45.325,28.872 L45.325,28.849 C45.325,26.378 47.172,24.339 49.763,24.339 C51.358,24.339 52.306,24.902 53.169,25.706 L52.414,26.558 C51.682,25.874 50.878,25.394 49.751,25.394 C47.904,25.394 46.525,26.905 46.525,28.824 L46.525,28.849 C46.525,30.768 47.904,32.303 49.751,32.303 C50.915,32.303 51.67,31.847 52.474,31.079 L53.229,31.822 C52.317,32.758 51.322,33.357 49.715,33.357 C47.196,33.357 45.325,31.379 45.325,28.872 Z M124.594,15.58 C124.499,14.465 123.851,13.529 122.664,13.529 C121.584,13.529 120.805,14.393 120.673,15.58 L124.594,15.58 Z M119.545,15.987 L119.545,15.964 C119.545,14.093 120.864,12.581 122.675,12.581 C124.643,12.581 125.734,14.141 125.734,16.035 C125.734,16.155 125.722,16.252 125.71,16.384 L120.685,16.384 C120.829,17.679 121.752,18.41 122.832,18.41 C123.683,18.41 124.271,18.074 124.798,17.535 L125.482,18.146 C124.846,18.878 124.031,19.357 122.808,19.357 C121.008,19.357 119.545,18.003 119.545,15.987 Z M112.394,16 L112.394,15.976 C112.394,14.141 113.821,12.581 115.74,12.581 C116.963,12.581 117.718,13.085 118.33,13.732 L117.61,14.5 C117.107,13.984 116.567,13.577 115.728,13.577 C114.48,13.577 113.533,14.644 113.533,15.952 L113.533,15.976 C113.533,17.307 114.492,18.362 115.788,18.362 C116.579,18.362 117.167,17.978 117.683,17.451 L118.378,18.122 C117.73,18.842 116.963,19.357 115.728,19.357 C113.821,19.357 112.394,17.835 112.394,16 Z M109.522,16.839 L109.522,16.275 C109.079,16.132 108.479,16 107.748,16 C106.608,16 105.96,16.491 105.96,17.259 L105.96,17.283 C105.96,18.038 106.656,18.482 107.483,18.482 C108.623,18.482 109.522,17.81 109.522,16.839 Z M104.845,17.343 L104.845,17.319 C104.845,15.939 105.973,15.22 107.592,15.22 C108.395,15.22 108.947,15.328 109.511,15.496 L109.511,15.28 C109.511,14.2 108.839,13.625 107.675,13.625 C106.92,13.625 106.332,13.805 105.745,14.081 L105.421,13.182 C106.128,12.857 106.836,12.63 107.808,12.63 C108.743,12.63 109.451,12.882 109.918,13.349 C110.374,13.805 110.59,14.452 110.59,15.28 L110.59,19.214 L109.499,19.214 L109.499,18.29 C109.055,18.854 108.335,19.357 107.232,19.357 C106.021,19.357 104.845,18.662 104.845,17.343 Z M102.238,15.987 L102.238,15.964 C102.238,14.513 101.243,13.577 100.079,13.577 C98.94,13.577 97.873,14.536 97.873,15.952 L97.873,15.976 C97.873,17.403 98.94,18.362 100.079,18.362 C101.267,18.362 102.238,17.463 102.238,15.987 Z M96.781,12.726 L97.908,12.726 L97.908,13.961 C98.424,13.205 99.168,12.581 100.319,12.581 C101.854,12.581 103.39,13.816 103.39,15.952 L103.39,15.976 C103.39,18.11 101.866,19.357 100.319,19.357 C99.144,19.357 98.4,18.734 97.908,18.038 L97.908,21.205 L96.781,21.205 L96.781,12.726 Z M89.797,18.387 L90.349,17.595 C91.057,18.122 91.824,18.41 92.556,18.41 C93.288,18.41 93.791,18.051 93.791,17.487 L93.791,17.463 C93.791,16.852 93.06,16.623 92.232,16.384 C91.237,16.096 90.121,15.735 90.121,14.536 L90.121,14.513 C90.121,13.349 91.081,12.605 92.364,12.605 C93.156,12.605 94.043,12.894 94.715,13.337 L94.223,14.165 C93.611,13.781 92.928,13.541 92.328,13.541 C91.621,13.541 91.177,13.9 91.177,14.393 L91.177,14.417 C91.177,14.992 91.956,15.22 92.784,15.472 C93.779,15.771 94.859,16.168 94.859,17.331 L94.859,17.354 C94.859,18.638 93.827,19.334 92.508,19.334 C91.585,19.334 90.565,18.986 89.797,18.387 Z M87.358,15.58 C87.263,14.465 86.615,13.529 85.428,13.529 C84.348,13.529 83.569,14.393 83.436,15.58 L87.358,15.58 Z M82.31,15.987 L82.31,15.964 C82.31,14.093 83.629,12.581 85.439,12.581 C87.407,12.581 88.498,14.141 88.498,16.035 C88.498,16.155 88.486,16.252 88.474,16.384 L83.449,16.384 C83.593,17.679 84.516,18.41 85.596,18.41 C86.447,18.41 87.035,18.074 87.562,17.535 L88.246,18.146 C87.61,18.878 86.795,19.357 85.572,19.357 C83.772,19.357 82.31,18.003 82.31,15.987 Z M77.665,12.726 L78.792,12.726 L78.792,14.345 C79.248,13.301 80.136,12.558 81.335,12.617 L81.335,13.805 L81.263,13.805 C79.872,13.805 78.792,14.776 78.792,16.659 L78.792,19.214 L77.665,19.214 L77.665,12.726 Z M74.411,16.839 L74.411,16.275 C73.967,16.132 73.367,16 72.636,16 C71.496,16 70.849,16.491 70.849,17.259 L70.849,17.283 C70.849,18.038 71.544,18.482 72.372,18.482 C73.511,18.482 74.411,17.81 74.411,16.839 Z M69.733,17.343 L69.733,17.319 C69.733,15.939 70.861,15.22 72.479,15.22 C73.283,15.22 73.835,15.328 74.398,15.496 L74.398,15.28 C74.398,14.2 73.727,13.625 72.563,13.625 C71.808,13.625 71.22,13.805 70.633,14.081 L70.309,13.182 C71.017,12.857 71.724,12.63 72.696,12.63 C73.631,12.63 74.339,12.882 74.807,13.349 C75.262,13.805 75.478,14.452 75.478,15.28 L75.478,19.214 L74.387,19.214 L74.387,18.29 C73.943,18.854 73.223,19.357 72.12,19.357 C70.909,19.357 69.733,18.662 69.733,17.343 Z M62.185,16.791 L62.185,12.726 L63.312,12.726 L63.312,16.479 C63.312,17.631 63.924,18.326 64.992,18.326 C66.023,18.326 66.79,17.57 66.79,16.419 L66.79,12.726 L67.906,12.726 L67.906,19.214 L66.79,19.214 L66.79,18.122 C66.359,18.794 65.699,19.357 64.62,19.357 C63.084,19.357 62.185,18.314 62.185,16.791 Z M58.894,15.976 L58.894,15.952 C58.894,14.536 57.839,13.577 56.687,13.577 C55.512,13.577 54.541,14.477 54.541,15.952 L54.541,15.976 C54.541,17.415 55.536,18.362 56.687,18.362 C57.839,18.362 58.894,17.403 58.894,15.976 Z M58.871,17.978 C58.355,18.722 57.611,19.357 56.46,19.357 C54.913,19.357 53.39,18.122 53.39,15.987 L53.39,15.964 C53.39,13.829 54.901,12.581 56.46,12.581 C57.623,12.581 58.367,13.205 58.871,13.9 L58.871,12.726 L59.986,12.726 L59.986,21.205 L58.871,21.205 L58.871,17.978 Z M45.134,17.942 L45.841,17.102 C46.728,17.894 47.592,18.303 48.755,18.303 C49.859,18.303 50.59,17.738 50.59,16.935 L50.59,16.911 C50.59,16.168 50.183,15.748 48.408,15.352 C46.441,14.92 45.481,14.297 45.481,12.81 L45.481,12.785 C45.481,11.37 46.705,10.362 48.384,10.362 C49.655,10.362 50.59,10.723 51.478,11.442 L50.831,12.33 C50.027,11.682 49.235,11.394 48.36,11.394 C47.292,11.394 46.633,11.97 46.633,12.678 L46.633,12.701 C46.633,13.493 47.064,13.9 48.912,14.309 C50.831,14.74 51.742,15.424 51.742,16.803 L51.742,16.827 C51.742,18.362 50.482,19.334 48.72,19.334 C47.352,19.334 46.177,18.878 45.134,17.942 Z M147,0 L3,0 C1.35,0 0,1.35 0,3 L0,42 C0,43.65 1.35,45 3,45 L147,45 C148.65,45 150,43.65 150,42 L150,3 C150,1.35 148.65,0 147,0 Z M147,1 C148.103,1 149,1.897 149,3 L149,42 C149,43.103 148.103,44 147,44 L3,44 C1.897,44 1,43.103 1,42 L1,3 C1,1.897 1.897,1 3,1 L147,1 L147,1 Z" id="squarespace-light-outline" fill="#FFFFFE"></path>
    </g>
</svg>