<?xml version="1.0" encoding="UTF-8" standalone="no"?>
<svg width="286px" height="315px" viewBox="0 0 286 315" version="1.1" xmlns="http://www.w3.org/2000/svg" xmlns:xlink="http://www.w3.org/1999/xlink">
    <!-- Generator: Sketch 39.1 (31720) - http://www.bohemiancoding.com/sketch -->
    <title>Honesty</title>
    <desc>Created with Sketch.</desc>
    <defs></defs>
    <g id="Page-1" stroke="none" stroke-width="1" fill="none" fill-rule="evenodd" stroke-linecap="round">
        <g id="Honesty" transform="translate(3.000000, 3.000000)" stroke="#BF8A49" stroke-width="5">
            <g id="hand" transform="translate(139.000000, 209.500000) scale(-1, 1) translate(-139.000000, -209.500000) translate(83.000000, 110.000000)" stroke-linejoin="round">
                <path d="M87.6981132,84.6808511 L87.6981132,86.6528765 C91.025998,84.9551262 93.7740307,85.0783638 98.2556494,87.8691696 C108.111473,94.0066151 100.54332,110.798684 100.384692,111.147609 L101.287215,112.202128 C101.287215,112.202128 101.287212,142.70648 101.287212,153.965184 C101.287212,165.223888 86.0838574,176.482592 86.0838574,176.482592 L86.0838574,199 L22.1886792,199 L22.1886792,186.297872 L22.1886792,181.005319 C22.1886792,181.005319 2.85871535e-09,181.358156 2.85871535e-09,158.776596 C2.85871535e-09,136.195035 2.85866264e-09,143.428191 2.85866264e-09,128.432624 C5.47076002,116.984191 12.0745544,109.487515 18.3773513,104.578534 L19.0188679,86.7978723 L19.0188679,22.8902926 C19.0188679,22.8902926 19.0188679,11.643617 30.1132075,11.643617 C41.2075472,11.643617 41.2075472,22.8902926 41.2075472,22.8902926 L41.2075472,86.1139116 L42.2641509,86.0813421 L42.2641509,11.2466755 C42.2641509,11.2466755 42.2641509,0 53.3584906,0 C64.4528302,5.62372062e-15 64.4528302,11.2466755 64.4528302,11.2466755 C64.4528302,11.2466755 64.4528302,80.1607656 64.4528302,89.8943643 L65.509434,85.3648118 C65.509434,69.1059751 65.509434,28.805315 65.509434,26.1300912 C65.5094339,22.7731003 65.509434,12.7021277 76.6037736,12.7021277 C87.6981132,12.7021277 87.6981132,20.4141337 87.6981132,26.0091185 C87.6981132,31.4092531 87.6981132,83.0136857 87.6981132,86.6014748 Z" id="Combined-Shape" fill="#F8F3EC"></path>
                <path d="M66.2054562,116.872352 C66.2054562,116.872352 53.2378962,103.27121 60.6356092,94.1646053 C68.0333222,85.0580002 71.6250327,91.1950914 92.3926511,95.5245756 C105.266809,113.4737 110.671902,119.445738 102.712545,125.54982 C91.1010297,134.033212 81.5679803,116.872351 73.5097707,112.11373" id="Path-27" transform="translate(82.398119, 108.660268) scale(-1, 1) rotate(19.000000) translate(-82.398119, -108.660268) "></path>
                <path d="M22.1886792,191.590426 L22.1886792,181.005319 C22.1886792,181.005319 2.85869966e-09,181.358156 2.85869966e-09,158.776596 C2.85869966e-09,136.195035 2.85864695e-09,143.428191 2.85864695e-09,128.432624 C15.8490572,95.2659574 41.2075472,95.2659574 41.2075472,95.2659574 L75.0188679,95.2659574 C75.0188679,95.2659574 73.9622642,117.847518 52.4779874,117.847518 C47.5471698,117.847518 38.0377359,123.140071 38.0377359,123.140071 L32.754717,136.547872 C32.754717,136.547872 56.3522013,136.547872 56.3522013,147.838652 C56.3522013,159.129433 56.3522013,154.89539 56.3522013,165.12766" id="Path-17" fill="#F8F3EC"></path>
            </g>
            <g id="rays">
                <path d="M140,50 L140,0" id="Path-3"></path>
                <path d="M140,90.5 L140,65" id="Path-3"></path>
                <path d="M200,129.5 L270,60" id="Path-3-Copy"></path>
                <path d="M80,130 L40,90" id="Path-3-Copy"></path>
                <path d="M30,80 L10,60" id="Path-3-Copy-2"></path>
                <path d="M100.5,101.5 L70,40" id="Path-4" stroke-linejoin="round"></path>
                <path d="M209.5,100.5 L180,40" id="Path-4" stroke-linejoin="round" transform="translate(195.000000, 70.500000) scale(-1, 1) translate(-195.000000, -70.500000) "></path>
                <path d="M60,191.5 L0,191.5" id="Path-5" stroke-linejoin="round"></path>
                <path d="M234.506409,191 L219,191" id="Path-5-Copy" stroke-linejoin="round"></path>
                <path d="M279.5,191 L250,191" id="Path-5-Copy-2" stroke-linejoin="round"></path>
                <path d="M220,160.056641 L279.705078,130" id="Path-6" stroke-linejoin="round"></path>
                <path d="M0,160.056641 L59.7050781,130" id="Path-6" stroke-linejoin="round" transform="translate(29.852539, 145.028320) scale(-1, 1) translate(-29.852539, -145.028320) "></path>
            </g>
        </g>
    </g>
</svg>
