<?xml version="1.0" encoding="UTF-8" standalone="no"?>
<svg width="286px" height="310px" viewBox="0 0 286 310" version="1.1" xmlns="http://www.w3.org/2000/svg" xmlns:xlink="http://www.w3.org/1999/xlink">
    <!-- Generator: Sketch 39.1 (31720) - http://www.bohemiancoding.com/sketch -->
    <title>Honesty</title>
    <desc>Created with Sketch.</desc>
    <defs></defs>
    <g id="Page-1" stroke="none" stroke-width="1" fill="none" fill-rule="evenodd" stroke-linecap="round">
        <g id="Honesty" transform="translate(3.000000, 3.000000)" stroke="#BF8A49" stroke-width="5">
            <g id="hand" transform="translate(90.000000, 116.000000)" stroke-linejoin="round">
                <path d="M95.8611144,107.013489 C95.8611138,112.212069 95.8611111,136.00645 95.8611111,145.454545 C95.8611111,156.090909 81.4722222,166.727273 81.4722222,166.727273 L81.4722222,188 L21,188 L21,171 L21,166 C21,166 2.70620551e-09,166.333333 2.70620554e-09,145 C2.70620641e-09,123.666667 -3.38275735e-09,110.097438 2.70620554e-09,102.333333 C7.2382145e-09,96.5545195 9.39225625,90.7757057 18,86.6930201 L18,21.625 C18,21.625 18,11 28.5,11 C39,11 39,21.625 39,21.625 L39,80.7096774 L40,80.6935484 L40,10.625 C40,10.625 40,0 50.5,0 C61,5.3128617e-15 61,7.4375 61,10.625 C61,32.9375002 61,80 61,80 L59.4013841,80.3806228 L63.1221374,80.3206107 L62,80 C62,80 62,27.8571429 62,24.6857143 C62,21.5142857 62,12 72.5,12 C83,12 83,19.2857143 83,24.5714286 C83,29.3408638 83,75.5177501 83,84.4928494 L83,85.0384588 C83.4186002,83.9411015 87.0343265,75.3210527 96.2353334,78.4892134 C106.05418,81.8701134 102.595891,91.913712 99.1376041,101.957311 C98.5787424,103.580362 97.4167352,105.289116 95.8611144,107.013489 Z" id="Combined-Shape" fill-opacity="0.1" fill="#BF8A49"></path>
                <path d="M21,176 L21,166 C21,166 2.70620551e-09,166.333333 2.70620554e-09,145 C2.70620641e-09,123.666667 -3.38275735e-09,110.097438 2.70620554e-09,102.333333 C1.10714913e-08,91.6666667 32,81 32,81 L64,81 C64,81 64,102.333333 42.6666667,102.333333 L32,102.333333 L32,113 C32,113 53.3333333,113 53.3333333,123.666667 L53.3333333,145 C53.3333333,155.666667 32,155.666667 32,155.666667" id="Path-17"></path>
                <path d="M77.2307689,85.6223176 C77.2307689,85.6223176 77.2307689,75 87.615384,75 C97.9999991,75 97.9999989,85.6223176 98,96.2446352 C97.999998,106.866953 77.2307689,128.111588 77.2307689,128.111588 C77.2307689,128.111588 70.9999997,132.360515 66.8461538,128.111588 C62.6923078,123.862661 66.8461538,117.48927 66.8461538,117.48927 L77.2307689,96.2446352" id="Path-27" transform="translate(81.500000, 102.500000) rotate(19.000000) translate(-81.500000, -102.500000) "></path>
            </g>
            <g id="rays">
                <path d="M140,50 L140,0" id="Path-3"></path>
                <path d="M140,90.5 L140,65" id="Path-3"></path>
                <path d="M200,129.5 L270,60" id="Path-3-Copy"></path>
                <path d="M80,130 L40,90" id="Path-3-Copy"></path>
                <path d="M30,80 L10,60" id="Path-3-Copy-2"></path>
                <path d="M100.5,101.5 L70,40" id="Path-4" stroke-linejoin="round"></path>
                <path d="M209.5,100.5 L180,40" id="Path-4" stroke-linejoin="round" transform="translate(195.000000, 70.500000) scale(-1, 1) translate(-195.000000, -70.500000) "></path>
                <path d="M60,191.5 L0,191.5" id="Path-5" stroke-linejoin="round"></path>
                <path d="M239.506409,191 L220,191" id="Path-5-Copy" stroke-linejoin="round"></path>
                <path d="M279.5,191 L250,191" id="Path-5-Copy-2" stroke-linejoin="round"></path>
                <path d="M220,160.056641 L279.705078,130" id="Path-6" stroke-linejoin="round"></path>
                <path d="M0,160.056641 L59.7050781,130" id="Path-6" stroke-linejoin="round" transform="translate(29.852539, 145.028320) scale(-1, 1) translate(-29.852539, -145.028320) "></path>
            </g>
        </g>
    </g>
</svg>