<?xml version="1.0" encoding="UTF-8" standalone="no"?>
<svg width="286px" height="313px" viewBox="0 0 286 313" version="1.1" xmlns="http://www.w3.org/2000/svg" xmlns:xlink="http://www.w3.org/1999/xlink">
    <!-- Generator: Sketch 39.1 (31720) - http://www.bohemiancoding.com/sketch -->
    <title>Social Responsibility 2</title>
    <desc>Created with Sketch.</desc>
    <defs></defs>
    <g id="Page-1" stroke="none" stroke-width="1" fill="none" fill-rule="evenodd" stroke-linejoin="round">
        <g id="Social-Responsibility-2" transform="translate(3.000000, 3.000000)" stroke="#BF8A49" stroke-width="5">
            <path d="M139.5,35.9267399 L139.5,267.59707" id="Path-44"></path>
            <path d="M20.2255639,35.5 L259.774436,35.5" id="Path-47" stroke-linecap="round"></path>
            <path d="M56.2255642,292.927525 L56.2255642,280.262297 L98.2255644,280.262297 L98.2255644,267.59707 L182.225563,267.59707 L182.225563,280.262297 L224.225564,280.262297 L224.225564,292.927525 L280.225564,292.927525 L280.225564,307 L0.22556391,307 L0.22556391,292.927525 L56.2255642,292.927525 Z" id="Combined-Shape" stroke-linecap="round" fill-opacity="0.1" fill="#BF8A49"></path>
            <polygon id="Path-48" stroke-linecap="round" fill-opacity="0.1" fill="#BF8A49" points="98.0676692 35.1234988 181.932331 35.1234988 181.932331 21.1418138 98.0676692 21.1418138"></polygon>
            <polyline id="Path-49" stroke-linecap="round" points="90.8646617 189.725275 48.9323308 77.8717949 7 189.725275"></polyline>
            <polyline id="Path-49-Copy" stroke-linecap="round" points="273 189.725275 231.067669 77.8717949 189.135338 189.725275"></polyline>
            <path d="M90.8646617,189.725275 C90.8646617,189.725275 90.8646617,217.688645 48.9323308,217.688645 C7,217.688645 7,189.725275 7,189.725275 L90.8646617,189.725275 Z" id="Path-50" stroke-linecap="round" fill-opacity="0.1" fill="#BF8A49"></path>
            <path d="M273,189.725275 C273,189.725275 273,217.688645 231.067669,217.688645 C189.135338,217.688645 189.135338,189.725275 189.135338,189.725275 L273,189.725275 Z" id="Path-50-Copy" stroke-linecap="round" fill-opacity="0.1" fill="#BF8A49"></path>
            <path d="M140,21 L140,0 L140,21 Z" id="Path-51" stroke-linecap="round"></path>
            <path d="M49,189.725275 L49,29.5714286" id="Path-52" stroke-linecap="round"></path>
            <path d="M231,189.725275 L231,29.5714286" id="Path-52" stroke-linecap="round"></path>
        </g>
    </g>
</svg>