<?xml version="1.0" encoding="UTF-8" standalone="no"?>
<svg width="326px" height="356px" viewBox="0 0 326 356" version="1.1" xmlns="http://www.w3.org/2000/svg" xmlns:xlink="http://www.w3.org/1999/xlink">
    <!-- Generator: Sketch 39.1 (31720) - http://www.bohemiancoding.com/sketch -->
    <title>Charities</title>
    <desc>Created with Sketch.</desc>
    <defs></defs>
    <g id="Page-1" stroke="none" stroke-width="1" fill="none" fill-rule="evenodd" stroke-linecap="round">
        <g id="Charities" transform="translate(3.000000, 3.000000)" stroke="#BF8A49" stroke-width="5">
            <g id="hand" transform="translate(40.000000, 240.000000)" stroke-linejoin="round">
                <path d="M190,29.8769517 C190,29.8769517 190,9.6769516 180,19.8769517 C170,29.676952 170,39.8769517 170,39.8769517 L160,49.6769518 L150,72.6769518 L170,72.6769518 C170,72.6769518 190,29.4769519 190,29.8769517 Z" id="Path-7-Copy"></path>
                <path d="M210,19.8000001 C210,19.8000001 210,-0.200000122 200,9.80000008 C190,19.8000003 194.086566,23.6701518 190,29.8000001 C185.913434,35.9298484 180,39.8000001 180,39.8000001 L170,59.8000001 L190,59.8000001 L210,19.8000001 Z" id="Path-7" fill="#FFFFFF"></path>
                <path d="M40,100 C40,100 100,110 120,110 C140,110 200,70 200,70 L220,30 C220,30 230,3.13351411e-15 220,0 C210,-3.13351411e-15 210,10 200,30 C192.634486,42.363783 170,60 170,60 C170,60 140,80 120,80 C100,80 80,70 80,70 C80,70 100,80 120,80 C140,80 170,60 180,50 C190,30 170,30 170,30 C170,30 157.154667,35.8490958 150,40 C140.308998,45.6224034 140,50 120,50 C120,50 100,40 100,40 C100,40 90,30 70,30 C50,30 30,50 30,50 L0,50 L0,100 C20,100 40,100 40,100 Z" id="Path" fill="#FFFFFF"></path>
            </g>
            <g id="rays">
                <path d="M160,50 L160,0" id="Path-3"></path>
                <path d="M160,110 L160,65" id="Path-3"></path>
                <path d="M240,109 L310,40" id="Path-3-Copy"></path>
                <path d="M80,110 L40,70" id="Path-3-Copy"></path>
                <path d="M30,60 L10,40" id="Path-3-Copy-2"></path>
                <path d="M120.5,101.5 L90,40" id="Path-4" stroke-linejoin="round"></path>
                <path d="M229.5,100.5 L200,40" id="Path-4" stroke-linejoin="round" transform="translate(215.000000, 70.500000) scale(-1, 1) translate(-215.000000, -70.500000) "></path>
                <path d="M60,171.5 L0,171.5" id="Path-5" stroke-linejoin="round"></path>
                <path d="M279.506409,171 L260,171" id="Path-5-Copy" stroke-linejoin="round"></path>
                <path d="M319.5,171 L290,171" id="Path-5-Copy-2" stroke-linejoin="round"></path>
                <path d="M260,140 L320,110" id="Path-6" stroke-linejoin="round"></path>
                <path d="M0,140 L60,110" id="Path-6" stroke-linejoin="round" transform="translate(30.000000, 125.000000) scale(-1, 1) translate(-30.000000, -125.000000) "></path>
            </g>
            <path d="M159.999999,150 C159.999999,150 169.999999,120 199.999999,120 C229.999999,120 250,140 240.000007,170 C230.000014,200 160,250 160,250 C160,250 90.0000004,200 80,170 C69.9999996,140 89.9999994,120 119.999999,120 C149.999999,120 159.999999,150 159.999999,150 Z" id="heart" stroke-linejoin="round" fill-opacity="0.1" fill="#BF8A49"></path>
        </g>
    </g>
</svg>