<svg width="286px" height="310px" viewBox="0 0 286 310" version="1.1" xmlns="http://www.w3.org/2000/svg" xmlns:xlink="http://www.w3.org/1999/xlink">
    <title>Honesty</title>
    <g id="Page-1" stroke="none" stroke-width="1" fill="none" fill-rule="evenodd" stroke-linecap="round">
        <g id="Honesty" transform="translate(3.000000, 3.000000)" stroke="#BF8A49" stroke-width="5">
            <g id="hand" transform="translate(90.000000, 116.000000)" fill="#FFFFFF" stroke-linejoin="round">
                <path d="M95.8611111,113.545455 C95.8611111,113.545455 95.8611111,134.818182 95.8611111,145.454545 C95.8611111,156.090909 74.4722222,166.727273 74.4722222,166.727273 L74.4722222,188 L21,188 L21,71 L98,80.5727273" id="Path-38"></path>
                <path d="M19,96 L19,21.625 C19,21.625 19,11 29.5,11 C40,11 40,21.625 40,21.625 L40,85.375" id="Path-15"></path>
                <path d="M40,85 L40,10.625 C40,10.625 40,0 50.5,0 C61,5.3128617e-15 61,7.4375 61,10.625 C61,32.9375002 61,85 61,85" id="Path-15-Copy"></path>
                <path d="M62,85 C62,85 62,26.8571429 62,23.6857143 C62,20.5142857 62,11 72.5,11 C83,11 83,16.2857143 83,21.5714286 C83,26.8571429 83,85 83,85" id="Path-15-Copy"></path>
                <path d="M21.3333333,177 L21.3333333,166.333333 C21.3333333,166.333333 2.70620551e-09,166.333333 2.70620554e-09,145 C2.70620641e-09,123.666667 -3.38275735e-09,110.097438 2.70620554e-09,102.333333 C1.10714913e-08,91.6666667 32,81 32,81 L64,81 C64,81 64,102.333333 42.6666667,102.333333 L32,102.333333 L32,113 C32,113 53.3333333,113 53.3333333,123.666667 L53.3333333,145 C53.3333333,155.666667 32,155.666667 32,155.666667" id="Path-17"></path>
                <path d="M81.2307689,84.6223176 C81.2307689,84.6223176 81.2307689,74 91.615384,74 C101.999999,74 101.999999,84.6223176 102,95.2446352 C101.999998,105.866953 81.2307689,127.111588 81.2307689,127.111588 C81.2307689,127.111588 74.9999997,131.360515 70.8461538,127.111588 C66.6923078,122.862661 70.8461538,116.48927 70.8461538,116.48927 L81.2307689,95.2446352" id="Path-27"></path>
            </g>
            <g id="rays">
                <path d="M140,50 L140,0" id="Path-3"></path>
                <path d="M140,90.5 L140,65" id="Path-3"></path>
                <path d="M200,129.5 L270,60" id="Path-3-Copy"></path>
                <path d="M80,130 L40,90" id="Path-3-Copy"></path>
                <path d="M30,80 L10,60" id="Path-3-Copy-2"></path>
                <path d="M100.5,101.5 L70,40" id="Path-4" stroke-linejoin="round"></path>
                <path d="M209.5,100.5 L180,40" id="Path-4" stroke-linejoin="round" transform="translate(195.000000, 70.500000) scale(-1, 1) translate(-195.000000, -70.500000) "></path>
                <path d="M60,191.5 L0,191.5" id="Path-5" stroke-linejoin="round"></path>
                <path d="M239.506409,191 L220,191" id="Path-5-Copy" stroke-linejoin="round"></path>
                <path d="M279.5,191 L250,191" id="Path-5-Copy-2" stroke-linejoin="round"></path>
                <path d="M220,160.056641 L279.705078,130" id="Path-6" stroke-linejoin="round"></path>
                <path d="M0,160.056641 L59.7050781,130" id="Path-6" stroke-linejoin="round" transform="translate(29.852539, 145.028320) scale(-1, 1) translate(-29.852539, -145.028320) "></path>
            </g>
        </g>
    </g>
</svg>
