<?xml version="1.0" encoding="UTF-8" standalone="no"?>
<svg width="286px" height="329px" viewBox="0 0 286 329" version="1.1" xmlns="http://www.w3.org/2000/svg" xmlns:xlink="http://www.w3.org/1999/xlink">
    <!-- Generator: Sketch 39.1 (31720) - http://www.bohemiancoding.com/sketch -->
    <title>Charities</title>
    <desc>Created with Sketch.</desc>
    <defs></defs>
    <g id="Page-1" stroke="none" stroke-width="1" fill="none" fill-rule="evenodd" stroke-linecap="round">
        <g id="Charities" transform="translate(3.000000, 3.000000)" stroke="#BF8A49" stroke-width="5">
            <g id="hand" transform="translate(37.000000, 228.000000)" stroke-linejoin="round">
                <path d="M162.977778,25.8028219 C162.977778,25.8028219 162.977778,8.35736729 154.4,17.1664583 C145.822222,25.6300949 145.822222,34.4391856 145.822222,34.4391856 L137.244444,42.902822 L128.666667,62.7664584 L145.822222,62.7664584 C145.822222,62.7664584 162.977778,25.4573675 162.977778,25.8028219 Z" id="Path-7-Copy"></path>
                <path d="M180.133333,17.1000001 C180.133333,17.1000001 180.133333,-0.172727378 171.555556,8.46363643 C162.977778,17.1000002 166.483143,20.4424038 162.977778,25.7363637 C159.472413,31.0303236 154.4,34.3727273 154.4,34.3727273 L145.822222,51.6454546 L162.977778,51.6454546 L180.133333,17.1000001 Z" id="Path-7" fill="#FFFFFF"></path>
                <path d="M34.3111111,86.3636364 C34.3111111,86.3636364 85.7777778,95 102.933333,95 C120.088889,95 171.555556,60.4545455 171.555556,60.4545455 L188.711111,25.9090909 C188.711111,25.9090909 197.288889,2.70621673e-15 188.711111,0 C180.133333,-2.70621673e-15 180.133333,8.63636364 171.555556,25.9090909 C165.237581,36.5869035 145.822222,51.8181818 145.822222,51.8181818 C145.822222,51.8181818 120.088889,69.0909091 102.933333,69.0909091 C85.7777778,69.0909091 68.6222222,60.4545455 68.6222222,60.4545455 C68.6222222,60.4545455 85.7777778,69.0909091 102.933333,69.0909091 C120.088889,69.0909091 145.822222,51.8181818 154.4,43.1818182 C162.977778,25.9090909 145.822222,25.9090909 145.822222,25.9090909 C145.822222,25.9090909 134.803781,30.9605827 128.666667,34.5454545 C120.35394,39.4011666 120.088889,43.1818182 102.933333,43.1818182 C102.933333,43.1818182 85.7777778,34.5454545 85.7777778,34.5454545 C85.7777778,34.5454545 77.2,25.9090909 60.0444444,25.9090909 C42.8888889,25.9090909 25.7333333,43.1818182 25.7333333,43.1818182 L0,43.1818182 L0,86.3636364 C17.1555556,86.3636364 34.3111111,86.3636364 34.3111111,86.3636364 Z" id="Path" fill="#FFFFFF"></path>
            </g>
            <g id="rays">
                <path d="M140,30 L140,0" id="Path-3"></path>
                <path d="M140,90 L140,45" id="Path-3"></path>
                <path d="M220,89 L280,30" id="Path-3-Copy"></path>
                <path d="M60,90 L20,50" id="Path-3-Copy"></path>
                <path d="M10,40 L0,30" id="Path-3-Copy-2"></path>
                <path d="M100.5,81.5 L70,20" id="Path-4" stroke-linejoin="round"></path>
                <path d="M209.5,80.5 L180,20" id="Path-4" stroke-linejoin="round" transform="translate(195.000000, 50.500000) scale(-1, 1) translate(-195.000000, -50.500000) "></path>
                <path d="M40,151.5 L0,151.5" id="Path-5" stroke-linejoin="round"></path>
                <path d="M256.506409,151 L240,151" id="Path-5-Copy" stroke-linejoin="round"></path>
                <path d="M279.5,151 L270,151" id="Path-5-Copy-2" stroke-linejoin="round"></path>
                <path d="M240,120 L280,100" id="Path-6" stroke-linejoin="round"></path>
                <path d="M0,120 L40,100" id="Path-6" stroke-linejoin="round" transform="translate(20.000000, 110.000000) scale(-1, 1) translate(-20.000000, -110.000000) "></path>
            </g>
            <path d="M139.999999,130 C139.999999,130 149.999999,100 179.999999,100 C209.999999,100 230,120 220.000007,150 C210.000014,180 140,230 140,230 C140,230 70.0000004,180 60,150 C49.9999996,120 69.9999994,100 99.9999994,100 C129.999999,100 139.999999,130 139.999999,130 Z" id="heart" stroke-linejoin="round" fill-opacity="0.1" fill="#BF8A49"></path>
        </g>
    </g>
</svg>