<?xml version="1.0" encoding="UTF-8" standalone="no"?>
<svg width="306px" height="196px" viewBox="0 0 306 196" version="1.1" xmlns="http://www.w3.org/2000/svg" xmlns:xlink="http://www.w3.org/1999/xlink">
    <!-- Generator: Sketch 39.1 (31720) - http://www.bohemiancoding.com/sketch -->
    <title>Code 2</title>
    <desc>Created with Sketch.</desc>
    <defs></defs>
    <g id="Page-1" stroke="none" stroke-width="1" fill="none" fill-rule="evenodd" stroke-linecap="round" stroke-linejoin="round">
        <g id="Code-2" transform="translate(3.000000, 3.000000)" stroke="#BF8A49" stroke-width="5">
            <path d="M0,170 L300,170 L300,180 C300,180 300,190 290,190 C290,190 10,190 10,190 C-4.16333634e-15,190 -2.38021687e-08,180 0,180 C2.38021687e-08,180 0,170 0,170 Z" id="base" fill-opacity="0.1" fill="#BF8A49"></path>
            <path d="M20,-5.68434189e-14 L280,-5.68434189e-14 L280,160 C280,160 280,170 270,170 C270,170 30,170 30,170 C20,170 20,160 20,160 L20,-5.68434189e-14 Z" id="bezel" fill-opacity="0.1" fill="#BF8A49" transform="translate(150.000000, 85.000000) scale(1, -1) translate(-150.000000, -85.000000) "></path>
            <polygon id="screen" fill="#FFFFFF" points="40 20 260 20 260 150 40 150"></polygon>
            <g id="Group-2" opacity="0.1" transform="translate(60.000000, 38.000000)">
                <path d="M0,1 L71,1 L0,1 Z" id="Path-45"></path>
                <path d="M20,12 L80,12 L20,12 Z" id="Path-45-Copy"></path>
                <path d="M20,22 L60,22 L20,22 Z" id="Path-45-Copy-2"></path>
                <path d="M20,62 L60,62 L20,62 Z" id="Path-45-Copy-5"></path>
                <path d="M20,72 L60,72 L20,72 Z" id="Path-45-Copy-5"></path>
                <path d="M20,82 L70,82 L20,82 Z" id="Path-45-Copy-5"></path>
                <path d="M20,32 L80,32 L20,32 Z" id="Path-45-Copy-3"></path>
                <path d="M0,52 L81,52 L0,52 Z" id="Path-45-Copy-4"></path>
            </g>
            <g id="symbol" transform="translate(75.000000, 46.000000)">
                <polyline id="Path-42" points="108 9 150 37 108 65"></polyline>
                <path d="M85,0 L56,75" id="Path-43"></path>
                <polyline id="Path-46" points="42 9 0 37 42 65"></polyline>
            </g>
        </g>
    </g>
</svg>
