<?xml version="1.0" encoding="UTF-8" standalone="no"?>
<svg width="286px" height="310px" viewBox="0 0 286 310" version="1.1" xmlns="http://www.w3.org/2000/svg" xmlns:xlink="http://www.w3.org/1999/xlink">
    <!-- Generator: Sketch 39.1 (31720) - http://www.bohemiancoding.com/sketch -->
    <title>Honesty</title>
    <desc>Created with Sketch.</desc>
    <defs></defs>
    <g id="Page-1" stroke="none" stroke-width="1" fill="none" fill-rule="evenodd" stroke-linecap="round">
        <g id="Honesty" transform="translate(3.000000, 3.000000)" stroke="#BF8A49" stroke-width="5">
            <g id="hand" transform="translate(139.000000, 210.000000) scale(-1, 1) translate(-139.000000, -210.000000) translate(86.000000, 116.000000)" stroke-linejoin="round">
                <path d="M83,80 L83,81.8616662 C86.1546612,80.2500475 88.7559918,80.3623548 93.0000001,83 C102.348883,88.8103173 95.1124671,104.753775 95.0012897,104.997181 L95.8611145,106 C95.8611145,106 95.8611111,134.818182 95.8611111,145.454545 C95.8611111,156.090909 81.4722222,166.727273 81.4722222,166.727273 L81.4722222,188 L21,188 L21,176 L21,171 C21,171 2.70534187e-09,171.333333 2.70534187e-09,150 C2.70534187e-09,128.666667 2.70529199e-09,135.5 2.70529199e-09,121.333333 C5.17768359,110.517728 11.4277033,103.435441 17.3928504,98.7978106 L18,82 L18,21.625 C18,21.625 18,11 28.5,11 C39,11 39,21.625 39,21.625 L39,81.3538462 L40,81.3230769 L40,10.625 C40,10.625 40,0 50.5,0 C61,5.3128617e-15 61,10.625 61,10.625 C61,10.625 61,75.7297685 61,84.9253291 L62,80.6461538 C62,65.2860468 62,27.2130614 62,24.6857143 C62,21.5142857 62,12 72.5,12 C83,12 83,19.2857143 83,24.5714286 C83,29.6730633 83,78.4249895 83,81.8144586 Z" id="Combined-Shape" fill="#F8F3EC"></path>
                <path d="M62.6587353,110.412071 C62.6587353,110.412071 50.385866,97.5627515 57.387273,88.9595266 C64.3886799,80.3563017 67.7879773,86.1541567 87.4430448,90.2443227 C99.6275159,107.201285 104.74305,112.84321 97.2100873,118.60988 C86.2206174,126.624341 77.1982671,110.41207 69.5717473,105.916488" id="Path-27" transform="translate(77.983934, 102.653922) scale(-1, 1) rotate(19.000000) translate(-77.983934, -102.653922) "></path>
                <path d="M21,181 L21,171 C21,171 2.70544135e-09,171.333333 2.70544135e-09,150 C2.70544135e-09,128.666667 2.70539147e-09,135.5 2.70539147e-09,121.333333 C15.0000006,90 39,90 39,90 L71,90 C71,90 70,111.333333 49.6666667,111.333333 C45,111.333333 36,116.333333 36,116.333333 L31,129 C31,129 53.3333333,129 53.3333333,139.666667 C53.3333333,150.333333 53.3333333,146.333333 53.3333333,156" id="Path-17" fill="#F8F3EC"></path>
            </g>
            <g id="rays">
                <path d="M140,50 L140,0" id="Path-3"></path>
                <path d="M140,90.5 L140,65" id="Path-3"></path>
                <path d="M200,129.5 L270,60" id="Path-3-Copy"></path>
                <path d="M80,130 L40,90" id="Path-3-Copy"></path>
                <path d="M30,80 L10,60" id="Path-3-Copy-2"></path>
                <path d="M100.5,101.5 L70,40" id="Path-4" stroke-linejoin="round"></path>
                <path d="M209.5,100.5 L180,40" id="Path-4" stroke-linejoin="round" transform="translate(195.000000, 70.500000) scale(-1, 1) translate(-195.000000, -70.500000) "></path>
                <path d="M60,191.5 L0,191.5" id="Path-5" stroke-linejoin="round"></path>
                <path d="M235.506409,191 L220,191" id="Path-5-Copy" stroke-linejoin="round"></path>
                <path d="M279.5,191 L250,191" id="Path-5-Copy-2" stroke-linejoin="round"></path>
                <path d="M220,160.056641 L279.705078,130" id="Path-6" stroke-linejoin="round"></path>
                <path d="M0,160.056641 L59.7050781,130" id="Path-6" stroke-linejoin="round" transform="translate(29.852539, 145.028320) scale(-1, 1) translate(-29.852539, -145.028320) "></path>
            </g>
        </g>
    </g>
</svg>