<?xml version="1.0" encoding="UTF-8" standalone="no"?>
<svg width="326px" height="354px" viewBox="0 0 326 354" version="1.1" xmlns="http://www.w3.org/2000/svg" xmlns:xlink="http://www.w3.org/1999/xlink">
    <!-- Generator: Sketch 39.1 (31720) - http://www.bohemiancoding.com/sketch -->
    <title>Charities</title>
    <desc>Created with Sketch.</desc>
    <defs></defs>
    <g id="Page-1" stroke="none" stroke-width="1" fill="none" fill-rule="evenodd" stroke-linecap="round">
        <g id="Charities" transform="translate(3.000000, 3.000000)" stroke="#BF8A49" stroke-width="5">
            <g id="hand" transform="translate(46.000000, 243.000000)" stroke-linejoin="round">
                <path d="M180.711111,28.5189085 C180.711111,28.5189085 180.711111,9.23709017 171.2,18.9734539 C161.688889,28.3279996 161.688889,38.064363 161.688889,38.064363 L152.177778,47.4189085 L142.666667,69.373454 L161.688889,69.373454 C161.688889,69.373454 180.711111,28.1370904 180.711111,28.5189085 Z" id="Path-7-Copy"></path>
                <path d="M199.733333,18.9000001 C199.733333,18.9000001 199.733333,-0.190909207 190.222222,9.35454553 C180.711111,18.9000003 184.597889,22.5942358 180.711111,28.4454546 C176.824333,34.2966735 171.2,37.9909092 171.2,37.9909092 L161.688889,57.0818183 L180.711111,57.0818183 L199.733333,18.9000001 Z" id="Path-7" fill="#FFFFFF"></path>
                <path d="M38.0444444,95.4545455 C38.0444444,95.4545455 95.1111111,105 114.133333,105 C133.155556,105 190.222222,66.8181818 190.222222,66.8181818 L209.244444,28.6363636 C209.244444,28.6363636 218.755556,2.99108165e-15 209.244444,0 C199.733333,-2.99108165e-15 199.733333,9.54545455 190.222222,28.6363636 C183.2168,40.4381565 161.688889,57.2727273 161.688889,57.2727273 C161.688889,57.2727273 133.155556,76.3636364 114.133333,76.3636364 C95.1111111,76.3636364 76.0888889,66.8181818 76.0888889,66.8181818 C76.0888889,66.8181818 95.1111111,76.3636364 114.133333,76.3636364 C133.155556,76.3636364 161.688889,57.2727273 171.2,47.7272727 C180.711111,28.6363636 161.688889,28.6363636 161.688889,28.6363636 C161.688889,28.6363636 149.47155,34.2195914 142.666667,38.1818182 C133.449447,43.5486578 133.155556,47.7272727 114.133333,47.7272727 C114.133333,47.7272727 95.1111111,38.1818182 95.1111111,38.1818182 C95.1111111,38.1818182 85.6,28.6363636 66.5777778,28.6363636 C47.5555556,28.6363636 28.5333333,47.7272727 28.5333333,47.7272727 L0,47.7272727 L0,95.4545455 C19.0222222,95.4545455 38.0444444,95.4545455 38.0444444,95.4545455 Z" id="Path" fill="#FFFFFF"></path>
            </g>
            <g id="rays">
                <path d="M160,50 L160,0" id="Path-3"></path>
                <path d="M160,110 L160,65" id="Path-3"></path>
                <path d="M240,109 L310,40" id="Path-3-Copy"></path>
                <path d="M80,110 L40,70" id="Path-3-Copy"></path>
                <path d="M30,60 L10,40" id="Path-3-Copy-2"></path>
                <path d="M120.5,101.5 L90,40" id="Path-4" stroke-linejoin="round"></path>
                <path d="M229.5,100.5 L200,40" id="Path-4" stroke-linejoin="round" transform="translate(215.000000, 70.500000) scale(-1, 1) translate(-215.000000, -70.500000) "></path>
                <path d="M60,171.5 L0,171.5" id="Path-5" stroke-linejoin="round"></path>
                <path d="M279.506409,171 L260,171" id="Path-5-Copy" stroke-linejoin="round"></path>
                <path d="M319.5,171 L290,171" id="Path-5-Copy-2" stroke-linejoin="round"></path>
                <path d="M260,140 L320,110" id="Path-6" stroke-linejoin="round"></path>
                <path d="M0,140 L60,110" id="Path-6" stroke-linejoin="round" transform="translate(30.000000, 125.000000) scale(-1, 1) translate(-30.000000, -125.000000) "></path>
            </g>
            <path d="M159.999999,150 C159.999999,150 169.999999,120 199.999999,120 C229.999999,120 250,140 240.000007,170 C230.000014,200 160,250 160,250 C160,250 90.0000004,200 80,170 C69.9999996,140 89.9999994,120 119.999999,120 C149.999999,120 159.999999,150 159.999999,150 Z" id="heart" stroke-linejoin="round" fill-opacity="0.1" fill="#BF8A49"></path>
        </g>
    </g>
</svg>