<?xml version="1.0" encoding="UTF-8" standalone="no"?>
<svg width="286px" height="286px" viewBox="0 0 286 286" version="1.1" xmlns="http://www.w3.org/2000/svg" xmlns:xlink="http://www.w3.org/1999/xlink">
    <!-- Generator: Sketch 39.1 (31720) - http://www.bohemiancoding.com/sketch -->
    <title>VC Funding Copy</title>
    <desc>Created with Sketch.</desc>
    <defs>
        <path d="M240.680844,42.893617 L40.5106383,238.297872" id="path-1"></path>
    </defs>
    <g id="Page-1" stroke="none" stroke-width="1" fill="none" fill-rule="evenodd">
        <g id="VC-Funding-Copy" transform="translate(3.000000, 3.000000)">
            <g id="bag" transform="translate(66.723404, 32.170213)" stroke="#BF8A49" stroke-width="5" fill="#BF8A49" fill-opacity="0.1">
                <polyline id="Path-12" stroke-linecap="round" stroke-linejoin="round" points="60.7659574 30.4428382 50.6382979 10.1476127 60.7659574 0 70.893617 10.1476127 81.0212766 0 91.1489362 10.1476127 81.0212766 30.4428382"></polyline>
                <path d="M0.0124099456,192.804642 C0.0124099456,183.671791 0.0124099973,161.347043 0.0124099456,142.108804 C0.0124099973,90.3137534 3.97374581,40.590451 71.1074714,40.590451 C137.226568,40.590451 141.495191,84.4594016 141.768709,139.564159 C141.789345,143.721554 141.768706,188.533353 141.768706,192.804642 C141.768706,201.937494 107.828918,212.085106 71.906383,212.085106 C35.9838475,212.085106 0.0124099456,201.937494 0.0124099456,192.804642 Z" id="Path-9" stroke-linecap="round" stroke-linejoin="round"></path>
                <path d="M50.6382979,40.590451 C50.6382979,30.4428382 50.6382979,30.4428382 70.893617,30.4428382 C91.1489362,30.4428382 91.1489362,30.4428382 91.1489362,40.590451 C91.1489362,40.590451 50.6382979,40.590451 50.6382979,40.590451 Z" id="Path-11"></path>
            </g>
            <g id="dollar-sign" transform="translate(117.957447, 103.659574)" stroke="#BF8A49" stroke-width="5" stroke-linecap="round" stroke-linejoin="round">
                <path d="M40.5106383,40.5106383 C40.5106383,30.3829787 40.5106383,20.2553191 20.2553191,20.2553191 C0,20.2553191 5.62198042e-16,30.3829787 0,40.5106383 C0,50.6382979 20.2553191,50.6382979 20.2553191,50.6382979 C20.2553191,50.6382979 40.5106383,50.6382979 40.5106383,60.7659574 C40.5106383,70.893617 40.5106383,81.0212766 20.2553191,81.0212766 C0,81.0212766 6.99982483e-09,70.893617 0,60.7659574" id="Path-10"></path>
                <path d="M21.5,0 L21.5,10.1276596" id="Path-13"></path>
                <path d="M21.5,91.1489362 L21.5,101.276596" id="Path-13-Copy"></path>
            </g>
            <g id="ixnay">
                <g id="Line">
                    <use stroke="#FFFFFF" stroke-width="23.8297872" xlink:href="#path-1"></use>
                    <use stroke="#BF8A49" stroke-width="5" xlink:href="#path-1"></use>
                </g>
                <path d="M140,280 C217.319865,280 280,217.319865 280,140 C280,62.680135 217.319865,0 140,0 C62.680135,0 0,62.680135 0,140 C0,217.319865 62.680135,280 140,280 Z" id="Oval-2" stroke="#BF8A49" stroke-width="5"></path>
            </g>
        </g>
    </g>
</svg>
