<?xml version="1.0" encoding="UTF-8" standalone="no"?>
<svg width="248px" height="279px" viewBox="0 0 248 279" version="1.1" xmlns="http://www.w3.org/2000/svg" xmlns:xlink="http://www.w3.org/1999/xlink">
    <!-- Generator: Sketch 39.1 (31720) - http://www.bohemiancoding.com/sketch -->
    <title>Social Responsibility 2</title>
    <desc>Created with Sketch.</desc>
    <defs></defs>
    <g id="Page-1" stroke="none" stroke-width="1" fill="none" fill-rule="evenodd" stroke-linejoin="round">
        <g id="Social-Responsibility-2" transform="translate(3.000000, 3.000000)" stroke="#BF8A49">
            <path d="M121,44 L121,242" id="Path-44" stroke-width="5.5"></path>
            <path d="M11,46 L231,46" id="Path-47" stroke-width="5.5" stroke-linecap="round"></path>
            <path d="M55.0000002,261.928571 L55.0000002,251.964286 L88.0000004,251.964286 L88.0000004,242 L154,242 L154,251.964286 L187,251.964286 L187,261.928571 L231,261.928571 L231,273 L11,273 L11,261.928571 L55.0000002,261.928571 Z" id="Combined-Shape" stroke-width="5.5" stroke-linecap="round" fill-opacity="0.1" fill="#BF8A49"></path>
            <polygon id="Path-48" stroke-width="5" stroke-linecap="round" fill-opacity="0.1" fill="#BF8A49" points="88 45 154 45 154 34 88 34"></polygon>
            <polyline id="Path-49" stroke-width="5" stroke-linecap="round" points="66 165 33 77 0 165"></polyline>
            <polyline id="Path-49-Copy" stroke-width="5" stroke-linecap="round" points="242 165 209 77 176 165"></polyline>
            <path d="M66,165 C66,165 66,187 33,187 C0,187 0,165 0,165 L66,165 Z" id="Path-50" stroke-width="5" stroke-linecap="round" fill-opacity="0.1" fill="#BF8A49"></path>
            <path d="M242,165 C242,165 242,187 209,187 C176,187 176,165 176,165 L242,165 Z" id="Path-50-Copy" stroke-width="5" stroke-linecap="round" fill-opacity="0.1" fill="#BF8A49"></path>
            <path d="M121,33 L121,0 L121,33 Z" id="Path-51" stroke-width="5" stroke-linecap="round"></path>
            <path d="M33.5,166 L33.5,39" id="Path-52" stroke-width="5" stroke-linecap="round"></path>
            <path d="M209.5,166 L209.5,39" id="Path-52" stroke-width="5" stroke-linecap="round"></path>
        </g>
    </g>
</svg>