<?xml version="1.0" encoding="UTF-8" standalone="no"?>
<svg width="300px" height="185px" viewBox="0 0 300 185" version="1.1" xmlns="http://www.w3.org/2000/svg" xmlns:xlink="http://www.w3.org/1999/xlink">
    <!-- Generator: Sketch 39.1 (31720) - http://www.bohemiancoding.com/sketch -->
    <title>Laptop</title>
    <desc>Created with Sketch.</desc>
    <defs>
        <rect id="path-1" x="20" y="0" width="260" height="170" rx="8"></rect>
        <mask id="mask-2" maskContentUnits="userSpaceOnUse" maskUnits="objectBoundingBox" x="0" y="0" width="260" height="170" fill="white">
            <use xlink:href="#path-1"></use>
        </mask>
        <polygon id="path-3" points="34 15 266 15 266 155 34 155"></polygon>
        <mask id="mask-4" maskContentUnits="userSpaceOnUse" maskUnits="objectBoundingBox" x="0" y="0" width="232" height="140" fill="white">
            <use xlink:href="#path-3"></use>
        </mask>
        <path d="M0,50 L80,0" id="path-5"></path>
        <path d="M20,90 L69,60" id="path-6"></path>
        <path d="M80,55 L129,25" id="path-7"></path>
        <path d="M1,35 L50,5" id="path-8"></path>
        <path d="M45,90 L125,40" id="path-9"></path>
        <path d="M0,165 L300,165 L300,175 C300,180.522847 295.526348,185 289.997049,185 L10.0029514,185 C4.47847388,185 0,180.524062 0,175 L0,165 Z" id="path-10"></path>
        <mask id="mask-11" maskContentUnits="userSpaceOnUse" maskUnits="objectBoundingBox" x="0" y="0" width="300" height="20" fill="white">
            <use xlink:href="#path-10"></use>
        </mask>
    </defs>
    <g id="Page-1" stroke="none" stroke-width="1" fill="none" fill-rule="evenodd" stroke-linecap="round">
        <g id="Laptop">
            <use id="bezel" stroke="#BF8A49" mask="url(#mask-2)" stroke-width="10" stroke-linejoin="round" fill-opacity="0.1" fill="#BF8A49" xlink:href="#path-1"></use>
            <use id="screen" stroke="#BF8A49" mask="url(#mask-4)" stroke-width="10" stroke-linejoin="round" fill="#FFFFFF" xlink:href="#path-3"></use>
            <g id="Group-2" opacity="0.1" transform="translate(60.000000, 43.000000)" stroke="#BF8A49" stroke-width="5" stroke-linejoin="round">
                <path d="M0,1 L71,1 L0,1 Z" id="Path-45"></path>
                <path d="M20,12 L80,12 L20,12 Z" id="Path-45-Copy"></path>
                <path d="M20,22 L60,22 L20,22 Z" id="Path-45-Copy-2"></path>
                <path d="M20,62 L60,62 L20,62 Z" id="Path-45-Copy-5"></path>
                <path d="M20,72 L60,72 L20,72 Z" id="Path-45-Copy-5"></path>
                <path d="M20,82 L70,82 L20,82 Z" id="Path-45-Copy-5"></path>
                <path d="M20,32 L80,32 L20,32 Z" id="Path-45-Copy-3"></path>
                <path d="M0,52 L81,52 L0,52 Z" id="Path-45-Copy-4"></path>
            </g>
            <g id="shine" transform="translate(86.000000, 40.000000)">
                <g id="Path-3">
                    <use stroke="#FFFFFF" stroke-width="15" xlink:href="#path-5"></use>
                    <use stroke="#BF8A49" stroke-width="5" xlink:href="#path-5"></use>
                </g>
                <g id="Path-3">
                    <use stroke="#FFFFFF" stroke-width="15" xlink:href="#path-6"></use>
                    <use stroke="#BF8A49" stroke-width="5" xlink:href="#path-6"></use>
                </g>
                <g id="Path-3-Copy-5">
                    <use stroke="#FFFFFF" stroke-width="15" xlink:href="#path-7"></use>
                    <use stroke="#BF8A49" stroke-width="5" xlink:href="#path-7"></use>
                </g>
                <g id="Path-3-Copy-3">
                    <use stroke="#FFFFFF" stroke-width="15" fill="#D8D8D8" fill-rule="evenodd" xlink:href="#path-8"></use>
                    <use stroke="#BF8A49" stroke-width="5" xlink:href="#path-8"></use>
                </g>
                <g id="Path-3-Copy-4">
                    <use stroke="#FFFFFF" stroke-width="15" xlink:href="#path-9"></use>
                    <use stroke="#BF8A49" stroke-width="5" xlink:href="#path-9"></use>
                </g>
            </g>
            <use id="base" stroke="#BF8A49" mask="url(#mask-11)" stroke-width="10" stroke-linejoin="round" fill-opacity="0.1" fill="#BF8A49" xlink:href="#path-10"></use>
        </g>
    </g>
</svg>